<?xml version="1.0" encoding="UTF-8"?>
<svg version="1.1" xmlns="http://www.w3.org/2000/svg" width="1847" height="851">
<path d="M0 0 C609.51 0 1219.02 0 1847 0 C1847 280.83 1847 561.66 1847 851 C1237.49 851 627.98 851 0 851 C0 570.17 0 289.34 0 0 Z " fill="#FDFDFD" transform="translate(0,0)"/>
<path d="M0 0 C1.09072815 -0.00101212 1.09072815 -0.00101212 2.20349121 -0.00204468 C57.04261358 0.07828753 107.79595622 20.34134648 147.4375 58.25 C148.36433594 59.12398438 149.29117187 59.99796875 150.24609375 60.8984375 C164.97666575 75.14843765 176.72749196 92.26921437 186.4375 110.25 C186.77136719 110.85650391 187.10523438 111.46300781 187.44921875 112.08789062 C193.19221944 122.59472139 197.11910364 133.41157662 200.66894531 144.83105469 C201.41493977 147.17899404 202.22122383 149.49912873 203.03515625 151.82421875 C204.50006102 156.2073946 205.37722617 160.56038765 206.0625 165.125 C206.18729736 165.95032227 206.31209473 166.77564453 206.44067383 167.62597656 C207.71047198 176.49349862 208.2462415 185.29939871 208.4375 194.25 C208.46473145 195.42771973 208.49196289 196.60543945 208.52001953 197.81884766 C208.94407755 219.0564198 207.49411339 238.01575364 201.04736328 258.30419922 C200.4738851 260.13391142 199.9368363 261.97492813 199.40234375 263.81640625 C197.31580142 270.97147245 194.76935844 277.58628312 191.4375 284.25 C191.06206055 285.00345703 190.68662109 285.75691406 190.29980469 286.53320312 C184.40213406 298.29244541 178.19652143 309.61180699 170.4375 320.25 C170.02064941 320.82234375 169.60379883 321.3946875 169.17431641 321.984375 C158.91722267 335.88486983 147.20632546 348.77933475 133.4375 359.25 C132.02017578 360.40822266 132.02017578 360.40822266 130.57421875 361.58984375 C101.14477434 385.26054046 64.73891015 399.598846 27.4375 404.25 C25.56964844 404.53617188 25.56964844 404.53617188 23.6640625 404.828125 C-18.73422907 410.01418212 -62.91763775 399.51438896 -99.5625 378.25 C-100.26842285 377.84136719 -100.9743457 377.43273437 -101.70166016 377.01171875 C-116.38306039 368.40573397 -129.27280658 357.97405899 -141.5625 346.25 C-142.41457031 345.45078125 -143.26664062 344.6515625 -144.14453125 343.828125 C-151.03725306 337.18506083 -156.8323841 329.88738736 -162.5625 322.25 C-162.99062988 321.68796875 -163.41875977 321.1259375 -163.85986328 320.546875 C-180.90391868 298.09252884 -192.96977925 271.55732637 -199.3125 244.125 C-199.61063599 242.83867676 -199.61063599 242.83867676 -199.91479492 241.52636719 C-202.70833975 228.79077231 -203.93281177 216.15412198 -203.875 203.125 C-203.87284485 202.4546875 -203.8706897 201.784375 -203.86846924 201.09375 C-203.80791335 189.26539974 -202.9998756 177.83365534 -200.5625 166.25 C-200.37445801 165.35474609 -200.18641602 164.45949219 -199.99267578 163.53710938 C-193.87515444 135.60188861 -182.14598615 109.49161266 -165.5625 86.25 C-165.17513672 85.70424316 -164.78777344 85.15848633 -164.38867188 84.59619141 C-140.83962539 51.79288766 -108.5367095 28.70487402 -71.5625 13.25 C-70.5725 12.83105469 -69.5825 12.41210938 -68.5625 11.98046875 C-47.03020212 3.53577068 -22.98264214 0.01922716 0 0 Z " fill="#FCFCFD" transform="translate(466.5625,226.75)"/>
<path d="M0 0 C1.09072815 -0.00101212 1.09072815 -0.00101212 2.20349121 -0.00204468 C57.04261358 0.07828753 107.79595622 20.34134648 147.4375 58.25 C148.36433594 59.12398438 149.29117187 59.99796875 150.24609375 60.8984375 C164.97666575 75.14843765 176.72749196 92.26921437 186.4375 110.25 C186.77136719 110.85650391 187.10523438 111.46300781 187.44921875 112.08789062 C193.19221944 122.59472139 197.11910364 133.41157662 200.66894531 144.83105469 C201.41493977 147.17899404 202.22122383 149.49912873 203.03515625 151.82421875 C204.50006102 156.2073946 205.37722617 160.56038765 206.0625 165.125 C206.18729736 165.95032227 206.31209473 166.77564453 206.44067383 167.62597656 C207.71047198 176.49349862 208.2462415 185.29939871 208.4375 194.25 C208.46473145 195.42771973 208.49196289 196.60543945 208.52001953 197.81884766 C208.94407755 219.0564198 207.49411339 238.01575364 201.04736328 258.30419922 C200.4738851 260.13391142 199.9368363 261.97492813 199.40234375 263.81640625 C197.31580142 270.97147245 194.76935844 277.58628312 191.4375 284.25 C191.06206055 285.00345703 190.68662109 285.75691406 190.29980469 286.53320312 C184.40213406 298.29244541 178.19652143 309.61180699 170.4375 320.25 C170.02064941 320.82234375 169.60379883 321.3946875 169.17431641 321.984375 C158.91722267 335.88486983 147.20632546 348.77933475 133.4375 359.25 C132.02017578 360.40822266 132.02017578 360.40822266 130.57421875 361.58984375 C101.14477434 385.26054046 64.73891015 399.598846 27.4375 404.25 C25.56964844 404.53617188 25.56964844 404.53617188 23.6640625 404.828125 C-18.73422907 410.01418212 -62.91763775 399.51438896 -99.5625 378.25 C-100.26842285 377.84136719 -100.9743457 377.43273437 -101.70166016 377.01171875 C-116.38306039 368.40573397 -129.27280658 357.97405899 -141.5625 346.25 C-142.41457031 345.45078125 -143.26664062 344.6515625 -144.14453125 343.828125 C-151.03725306 337.18506083 -156.8323841 329.88738736 -162.5625 322.25 C-162.99062988 321.68796875 -163.41875977 321.1259375 -163.85986328 320.546875 C-180.90391868 298.09252884 -192.96977925 271.55732637 -199.3125 244.125 C-199.61063599 242.83867676 -199.61063599 242.83867676 -199.91479492 241.52636719 C-202.70833975 228.79077231 -203.93281177 216.15412198 -203.875 203.125 C-203.87284485 202.4546875 -203.8706897 201.784375 -203.86846924 201.09375 C-203.80791335 189.26539974 -202.9998756 177.83365534 -200.5625 166.25 C-200.37445801 165.35474609 -200.18641602 164.45949219 -199.99267578 163.53710938 C-193.87515444 135.60188861 -182.14598615 109.49161266 -165.5625 86.25 C-165.17513672 85.70424316 -164.78777344 85.15848633 -164.38867188 84.59619141 C-140.83962539 51.79288766 -108.5367095 28.70487402 -71.5625 13.25 C-70.5725 12.83105469 -69.5825 12.41210938 -68.5625 11.98046875 C-47.03020212 3.53577068 -22.98264214 0.01922716 0 0 Z M-27.5625 36.25 C-28.35172852 36.40065918 -29.14095703 36.55131836 -29.95410156 36.70654297 C-56.87930699 42.06584294 -83.00191973 53.08846298 -104.5625 70.25 C-105.1080957 70.68280273 -105.65369141 71.11560547 -106.21582031 71.56152344 C-140.96867351 99.43302668 -162.09277772 137.4299942 -169.5625 181.25 C-169.75714844 182.32507813 -169.95179688 183.40015625 -170.15234375 184.5078125 C-175.02539407 228.96859538 -160.50244325 272.66828121 -132.98925781 307.47998047 C-129.68695989 311.57677375 -126.20213664 315.45239302 -122.5625 319.25 C-121.758125 320.11753906 -120.95375 320.98507812 -120.125 321.87890625 C-92.30401391 350.98330093 -50.27207632 370.37666848 -9.99420166 371.47035217 C25.673983 372.23912782 56.7222554 367.55333145 88.4375 350.25 C89.45585938 349.70988281 90.47421875 349.16976563 91.5234375 348.61328125 C110.2848752 338.22658719 127.62903819 323.44654595 140.4375 306.25 C140.83775391 305.71938965 141.23800781 305.1887793 141.65039062 304.64208984 C155.59140626 286.08083746 165.43346099 265.59726029 171.4375 243.125 C171.62078857 242.44155518 171.80407715 241.75811035 171.99291992 241.05395508 C175.23663466 227.86513901 175.84516621 214.56937216 175.8125 201.0625 C175.81218277 199.84451721 175.81218277 199.84451721 175.81185913 198.60192871 C175.77930413 186.05452211 174.88226826 174.36850366 171.4375 162.25 C171.05779577 160.77006847 170.68020683 159.28959269 170.3046875 157.80859375 C167.73990944 148.07796814 164.00647186 139.19452313 159.4375 130.25 C159.12409668 129.62351562 158.81069336 128.99703125 158.48779297 128.3515625 C153.84386766 119.09676473 148.62689455 110.57403843 142.4375 102.25 C141.78652344 101.3734375 141.13554688 100.496875 140.46484375 99.59375 C120.91332337 74.5798588 95.85969733 56.78727563 66.4375 45.25 C65.77943359 44.98735352 65.12136719 44.72470703 64.44335938 44.45410156 C36.01659803 33.34431899 2.45582161 30.48268927 -27.5625 36.25 Z " fill="#1558F7" transform="translate(466.5625,226.75)"/>
<path d="M0 0 C11.75369491 0.14468413 11.75369491 0.14468413 16.19824219 4.14257812 C18.90500611 7.42999403 20.86549408 11.07803318 22.72070312 14.8984375 C24.53840421 18.47767037 26.89854946 21.63395863 29.23339844 24.88867188 C30.1458624 26.22214644 31.05464378 27.55814745 31.95996094 28.89648438 C35.12871947 33.55230696 38.36894176 38.15689452 41.60839844 42.76367188 C47.17256521 50.68818625 52.64638661 58.67056893 58.0871582 66.68017578 C63.52690842 74.67810176 69.04229263 82.62204983 74.58056641 90.55200195 C75.52826904 91.90974731 75.52826904 91.90974731 76.49511719 93.29492188 C77.04901123 94.08705078 77.60290527 94.87917969 78.17358398 95.6953125 C80.10007502 98.4891572 81.97835967 101.31341288 83.85839844 104.13867188 C83.8687059 102.86302872 83.87901337 101.58738556 83.88963318 100.27308655 C83.98718459 88.27968984 84.08990085 76.28634714 84.19773769 64.29303837 C84.25301634 58.1264485 84.3064441 51.95985394 84.35571289 45.79321289 C84.40328372 39.84746964 84.45562361 33.90178613 84.51133919 27.95611382 C84.53179585 25.6822196 84.55050331 23.40830898 84.56747246 21.13438606 C84.59144343 17.96135625 84.62150761 14.78844051 84.65307617 11.61547852 C84.65883163 10.66529846 84.6645871 9.71511841 84.67051697 8.73614502 C84.74434628 2.25272404 84.74434628 2.25272404 85.85839844 1.13867188 C87.99193017 1.03863898 90.12877385 1.0078614 92.26464844 1.00585938 C93.5653125 1.00457031 94.86597656 1.00328125 96.20605469 1.00195312 C97.22723389 1.00509521 97.22723389 1.00509521 98.26904297 1.00830078 C100.34968359 1.01364947 102.43010833 1.00835508 104.51074219 1.00195312 C106.46173828 1.00388672 106.46173828 1.00388672 108.45214844 1.00585938 C109.65548828 1.0069873 110.85882812 1.00811523 112.09863281 1.00927734 C114.85839844 1.13867188 114.85839844 1.13867188 115.85839844 2.13867188 C115.95729626 4.1233138 115.98472109 6.11152841 115.98538208 8.09863281 C115.9882019 9.39434204 115.99102173 10.69005127 115.993927 12.02502441 C115.9919824 13.47436537 115.98993421 14.92370619 115.98779297 16.37304688 C115.98914695 17.88879437 115.99092686 19.40454154 115.99310303 20.92028809 C115.99767775 25.04827169 115.99588764 29.17623042 115.99272394 33.30421448 C115.99020054 37.61459421 115.99253782 41.92497175 115.99411011 46.23535156 C115.99593186 53.47526433 115.99352534 60.71516691 115.98876953 67.95507812 C115.9833269 76.33761283 115.98508955 84.72012321 115.99059594 93.10265732 C115.9951269 100.28649988 115.9957777 107.47033509 115.99315727 114.65417862 C115.9915944 118.95056812 115.99140099 123.24694618 115.99469376 127.54333496 C115.99757223 131.58158004 115.99559722 135.61979362 115.9897995 139.65803528 C115.98847177 141.14439339 115.98886623 142.63075413 115.99106216 144.11711121 C115.99377314 146.13764352 115.98977931 148.15818159 115.98538208 150.17871094 C115.98481654 151.87885345 115.98481654 151.87885345 115.98423958 153.61334229 C115.85839844 156.13867188 115.85839844 156.13867188 114.85839844 157.13867188 C110.69550565 157.52583197 106.52904807 157.62388621 102.35009766 157.70849609 C100.94911551 157.74501535 99.54847563 157.79945023 98.14892578 157.87255859 C86.65157726 158.46391309 86.65157726 158.46391309 82.60180664 155.47094727 C80.75362536 153.12769416 79.31748801 150.74069898 77.85839844 148.13867188 C76.64284602 146.39251592 75.41178642 144.65707263 74.16699219 142.93164062 C72.87423562 141.06480519 71.58396102 139.19624911 70.29589844 137.32617188 C68.8820542 135.28435406 67.46798762 133.24269018 66.05371094 131.20117188 C65.35020508 130.18410156 64.64669922 129.16703125 63.921875 128.11914062 C60.84895168 123.68063519 57.76377115 119.25079508 54.67089844 114.82617188 C54.09984375 114.00922852 53.52878906 113.19228516 52.94042969 112.35058594 C48.58856961 106.14249397 44.15031675 100.0002916 39.69067383 93.86938477 C35.2039436 87.67576859 30.87429685 81.38164708 26.61010742 75.03295898 C23.57684474 70.54460725 20.41556039 66.17037089 17.15429688 61.84521484 C16.73977264 61.29405502 16.32524841 60.7428952 15.89816284 60.17503357 C14.88566073 58.82901315 13.8721351 57.48376275 12.85839844 56.13867188 C12.85031158 57.38703827 12.84222473 58.63540466 12.83389282 59.92160034 C12.75653541 71.66455386 12.66882281 83.40739002 12.57087135 95.15019035 C12.52084449 101.18783122 12.47451516 107.22545405 12.43652344 113.26318359 C12.39975121 119.0857864 12.35341356 124.9082405 12.30033493 130.73071671 C12.28174799 132.95632453 12.26665608 135.18196428 12.25505447 137.40761948 C12.23826542 140.51588037 12.20924855 143.62379746 12.17724609 146.73193359 C12.17508591 147.65981689 12.17292572 148.5877002 12.17070007 149.54370117 C12.15953659 150.38786591 12.14837311 151.23203064 12.13687134 152.10177612 C12.1285752 153.20516232 12.1285752 153.20516232 12.12011147 154.33083916 C11.85839844 156.13867188 11.85839844 156.13867188 9.85839844 158.13867188 C7.09277344 158.39746094 7.09277344 158.39746094 3.60839844 158.40429688 C1.73667969 158.40816406 1.73667969 158.40816406 -0.17285156 158.41210938 C-1.48253906 158.404375 -2.79222656 158.39664063 -4.14160156 158.38867188 C-5.45128906 158.39640625 -6.76097656 158.40414062 -8.11035156 158.41210938 C-9.35816406 158.40953125 -10.60597656 158.40695312 -11.89160156 158.40429688 C-13.61636719 158.40091309 -13.61636719 158.40091309 -15.37597656 158.39746094 C-18.14160156 158.13867188 -18.14160156 158.13867188 -20.14160156 156.13867188 C-20.39049053 153.49029446 -20.39049053 153.49029446 -20.38883972 150.05845642 C-20.39513145 148.11283058 -20.39513145 148.11283058 -20.40155029 146.12789917 C-20.3960664 144.6821892 -20.39038341 143.23647997 -20.38452148 141.79077148 C-20.3855939 140.27487608 -20.38753199 138.75898107 -20.39027405 137.24308777 C-20.39513156 133.11926335 -20.38745577 128.99554672 -20.377321 124.87173533 C-20.36855662 120.56403263 -20.37029763 116.25633346 -20.37068176 111.94862366 C-20.36974448 104.71467274 -20.36105131 97.4807637 -20.34741211 90.24682617 C-20.33167998 81.87165267 -20.32641417 73.49652504 -20.32714766 65.12133783 C-20.32775706 57.07811909 -20.32266011 49.03491536 -20.31435585 40.99170113 C-20.31081645 37.56228074 -20.30899167 34.13286566 -20.30846214 30.70344353 C-20.3074609 26.6692835 -20.30138225 22.63516231 -20.29129601 18.60101509 C-20.28836417 17.11627058 -20.28714701 15.63152159 -20.28772354 14.14677429 C-20.28821086 12.12847991 -20.28196517 10.11018717 -20.27531433 8.09190369 C-20.27363849 6.95977416 -20.27196264 5.82764463 -20.27023602 4.66120815 C-19.93868495 -1.84054608 -5.37884353 0.05410761 0 0 Z " fill="#155EFB" transform="translate(763.1416015625,269.861328125)"/>
<path d="M0 0 C-0.67681878 4.84793914 -2.59644748 8.96053136 -4.5859375 13.3828125 C-4.95470505 14.21354782 -5.3234726 15.04428314 -5.70341492 15.90019226 C-6.92259195 18.64390624 -8.14880135 21.38441777 -9.375 24.125 C-10.2302567 26.04623654 -11.08498506 27.96770834 -11.93920898 29.8894043 C-13.72265329 33.900614 -15.50840092 37.91078751 -17.29541016 41.92041016 C-20.34308073 48.76436199 -23.36657113 55.61888156 -26.38711548 62.47483826 C-29.55215922 69.65843339 -32.72869373 76.83687452 -35.91073608 84.01295471 C-38.03873122 88.81576457 -40.14605788 93.62681797 -42.23828125 98.4453125 C-43.11680218 100.44287784 -43.99566481 102.44029297 -44.875 104.4375 C-45.41846069 105.71427612 -45.41846069 105.71427612 -45.97290039 107.0168457 C-46.30926514 107.77312256 -46.64562988 108.52939941 -46.9921875 109.30859375 C-47.26401855 109.93564209 -47.53584961 110.56269043 -47.81591797 111.20874023 C-50.74420164 115.63859947 -54.95768406 117.61673969 -59.8203125 119.33984375 C-60.9757959 119.75564697 -62.1312793 120.1714502 -63.32177734 120.59985352 C-63.93833191 120.81666779 -64.55488647 121.03348206 -65.19012451 121.25686646 C-67.18292177 121.95787521 -69.17118606 122.67060788 -71.15869141 123.38647461 C-73.2777358 124.14955984 -75.3970158 124.91190923 -77.51754761 125.67085266 C-84.455539 128.15416595 -91.36617404 130.70856726 -98.27191162 133.27999878 C-100.39036765 134.06821788 -102.50979142 134.85378732 -104.62939453 135.63891602 C-112.58665577 138.5902621 -120.53001929 141.57604402 -128.46133423 144.59648132 C-132.87905716 146.27822052 -137.29927976 147.95333973 -141.71954346 149.62838745 C-143.90114545 150.45742219 -146.08145515 151.28986587 -148.26043701 152.12576294 C-151.31637013 153.29788202 -154.37640374 154.45863264 -157.4375 155.6171875 C-158.82251205 156.15361626 -158.82251205 156.15361626 -160.23550415 156.70088196 C-161.5091835 157.17934822 -161.5091835 157.17934822 -162.80859375 157.66748047 C-163.54907959 157.95025848 -164.28956543 158.2330365 -165.05249023 158.52438354 C-167 159 -167 159 -170 158 C-168.62387346 150.59659298 -166.16289885 144.08919837 -163.1875 137.1875 C-162.54844727 135.68219727 -162.54844727 135.68219727 -161.89648438 134.14648438 C-161.02917928 132.10352819 -160.15918323 130.0617125 -159.28662109 128.02099609 C-158.06882156 125.16159354 -156.86840374 122.29576311 -155.67578125 119.42578125 C-153.52727055 114.25696762 -151.36061509 109.09600204 -149.1875 103.9375 C-148.84830032 103.13230423 -148.50910065 102.32710846 -148.15962219 101.49751282 C-146.75284091 98.15871099 -145.34564923 94.8200822 -143.93847656 91.48144531 C-137.05084832 75.25504279 -137.05084832 75.25504279 -130.375 58.94140625 C-129.92125 57.82636719 -129.4675 56.71132813 -129 55.5625 C-128.54625 54.42941406 -128.0925 53.29632813 -127.625 52.12890625 C-122.023401 41.3431351 -108.81716807 38.68708695 -98.18359375 34.59765625 C-96.8231878 34.0727813 -95.46279069 33.54788347 -94.10240173 33.02296448 C-78.55070068 27.03093748 -62.95228645 21.16215675 -47.35192871 15.29827881 C-43.47313565 13.83993121 -39.59500407 12.37982658 -35.71679688 10.91992188 C-31.35515139 9.27824048 -26.99342726 7.63676876 -22.63136292 5.99620056 C-21.65319438 5.62807046 -21.65319438 5.62807046 -20.65526485 5.2525034 C-18.82617257 4.56538843 -16.9956505 3.88208319 -15.16506958 3.19894409 C-13.25082937 2.47382039 -11.34305878 1.73079658 -9.44894409 0.95462036 C-5.79948247 -0.53150953 -3.76220588 -1.19267266 0 0 Z " fill="#145EF9" transform="translate(555,352)"/>
<path d="M0 0 C0 0.66 0 1.32 0 2 C0.556875 2.03738281 1.11375 2.07476562 1.6875 2.11328125 C15.44618874 3.29857369 27.78635525 10.79256176 37 21 C48.16558004 36.60443585 50.7750846 52.06898005 49 71 C46.23258237 85.23926368 37.30297383 98.02276963 25.796875 106.65234375 C11.01389494 116.27107084 -7.89219108 119.55633259 -25.10400391 115.9230957 C-41.18335816 112.05962196 -53.87926851 103.70185912 -62.94970703 89.81689453 C-71.27947025 75.40729485 -73.63125058 57.70104389 -69.4375 41.625 C-64.29572244 25.90793526 -54.4919353 14.64890543 -40.265625 6.41796875 C-27.30141088 0.07010651 -14.11468125 -0.43208208 0 0 Z " fill="#165CFB" transform="translate(926,487)"/>
<path d="M0 0 C1.14662109 -0.01836914 1.14662109 -0.01836914 2.31640625 -0.03710938 C15.07668207 -0.06960583 27.5445327 4.7945276 37.125 13.1875 C38.10726562 13.97833984 38.10726562 13.97833984 39.109375 14.78515625 C43.82372807 18.94219239 46.69225536 23.58278978 49.5 29.125 C49.83386719 29.78097168 50.16773438 30.43694336 50.51171875 31.11279297 C54.53431998 39.49114296 55.4416448 47.47063947 55.3125 56.6875 C55.3115332 58.04488281 55.3115332 58.04488281 55.31054688 59.4296875 C55.26583759 66.04666241 55.26583759 66.04666241 54.125 67.1875 C51.59958998 67.28254251 49.10162874 67.31307158 46.57592773 67.30102539 C45.39064987 67.30124443 45.39064987 67.30124443 44.181427 67.3014679 C41.55712178 67.30076857 38.93288664 67.29297527 36.30859375 67.28515625 C34.49398335 67.28329214 32.67937244 67.2818682 30.86476135 67.28086853 C26.0790977 67.27704279 21.2934642 67.26721204 16.5078125 67.25616455 C11.62825936 67.24595163 6.74870136 67.24137117 1.86914062 67.23632812 C-7.71225286 67.22558982 -17.29362393 67.20851273 -26.875 67.1875 C-26.2567446 68.94287004 -25.63334839 70.69642996 -25.0078125 72.44921875 C-24.66121582 73.42592529 -24.31461914 74.40263184 -23.95751953 75.40893555 C-20.79998561 83.51355747 -15.63434946 87.42768514 -7.875 91.1875 C0.11104293 93.86044661 9.12669663 93.15231274 16.625 89.5625 C20.10825859 87.62427245 22.86626172 85.67950063 25.5625 82.75 C26.408125 81.904375 27.25375 81.05875 28.125 80.1875 C31.72876595 80.48538376 34.43643612 81.70263276 37.55078125 83.47265625 C38.34677734 83.92060547 39.14277344 84.36855469 39.96289062 84.83007812 C40.77951172 85.29865234 41.59613281 85.76722656 42.4375 86.25 C43.27345703 86.72244141 44.10941406 87.19488281 44.97070312 87.68164062 C47.02569265 88.84417756 49.07687737 90.01292091 51.125 91.1875 C50.37235292 97.77605671 45.97269109 101.06769046 41.125 105.1875 C37.90723112 107.4349878 34.58812752 109.34612976 31.125 111.1875 C30.44566406 111.57808594 29.76632812 111.96867187 29.06640625 112.37109375 C20.83077035 116.89489375 11.93209963 117.53882701 2.6875 117.4375 C1.76445068 117.42855713 0.84140137 117.41961426 -0.10961914 117.41040039 C-16.10375805 117.13787732 -28.99470794 112.82428904 -40.69140625 101.51171875 C-51.66853958 89.82765018 -57.99660781 76.27960046 -58.25 60.0625 C-58.16258311 57.76909219 -58.0385172 55.47674076 -57.875 53.1875 C-57.81570313 52.13046875 -57.75640625 51.0734375 -57.6953125 49.984375 C-56.17474718 34.92706967 -47.95608334 22.11651449 -36.875 12.1875 C-25.78732815 3.54633 -13.88457763 0.0115898 0 0 Z " fill="#155BFA" transform="translate(957.875,312.8125)"/>
<path d="M0 0 C9.93905572 7.77972312 15.97436931 15.95832101 19.53515625 27.984375 C20.09203125 29.5621875 20.09203125 29.5621875 20.66015625 31.171875 C22.4361475 36.8804183 22.69248438 42.37543901 22.66015625 48.296875 C22.66402344 49.02455078 22.66789062 49.75222656 22.671875 50.50195312 C22.66189236 55.85763889 22.66189236 55.85763889 21.53515625 56.984375 C19.04023237 57.07939916 16.57309611 57.10995066 14.07788086 57.09790039 C13.29744919 57.09804642 12.51701752 57.09819244 11.7129364 57.0983429 C9.12109645 57.09764358 6.52932747 57.08985036 3.9375 57.08203125 C2.14530985 57.08016713 0.35311919 57.0787432 -1.43907166 57.07774353 C-6.16555172 57.07391784 -10.89200127 57.06408712 -15.61846924 57.05303955 C-20.43769925 57.04282653 -25.25693417 57.03824615 -30.07617188 57.03320312 C-39.53907594 57.02246489 -49.00195731 57.00538786 -58.46484375 56.984375 C-58.17259813 58.41918966 -57.87298531 59.85250494 -57.5703125 61.28515625 C-57.40426514 62.08348877 -57.23821777 62.88182129 -57.06713867 63.7043457 C-55.13411841 71.02192827 -48.95902087 75.85660769 -42.7578125 79.6328125 C-38.72730193 81.28709086 -35.46290575 81.48270858 -31.15234375 81.421875 C-30.02131226 81.40942749 -30.02131226 81.40942749 -28.86743164 81.39672852 C-19.49242836 81.1123922 -13.88768227 77.95978619 -7.2890625 71.375 C-5.46484375 69.984375 -5.46484375 69.984375 -1.46484375 69.984375 C0.82519531 70.99414062 0.82519531 70.99414062 3.30078125 72.390625 C4.19023438 72.88691406 5.0796875 73.38320313 5.99609375 73.89453125 C6.91648437 74.41917969 7.836875 74.94382812 8.78515625 75.484375 C9.72101563 76.00902344 10.656875 76.53367187 11.62109375 77.07421875 C13.93014059 78.37011239 16.23448399 79.67368899 18.53515625 80.984375 C17.02759172 88.44207117 9.41035575 94.03597973 3.3359375 98.15234375 C-3.67764871 102.12022304 -10.56038054 104.51405074 -18.46484375 105.984375 C-19.57859375 106.21125 -20.69234375 106.438125 -21.83984375 106.671875 C-39.78860343 108.21918187 -55.74624668 104.89953868 -70.15234375 93.796875 C-75.2888881 89.4293613 -79.02023581 84.75693225 -82.46484375 78.984375 C-82.8515625 78.36304688 -83.23828125 77.74171875 -83.63671875 77.1015625 C-91.58774344 62.97320323 -91.90836435 47.07623715 -88.50390625 31.62890625 C-84.25058577 16.71030471 -74.77750897 4.98568083 -61.4375 -2.77734375 C-42.41110429 -12.68642499 -17.91569262 -12.34837135 0 0 Z " fill="#155EFB" transform="translate(1426.46484375,497.015625)"/>
<path d="M0 0 C4.35984461 -0.12363227 8.71876055 -0.21434908 13.07983398 -0.2746582 C14.56308768 -0.2997981 16.04621753 -0.33391592 17.52905273 -0.37719727 C19.66160595 -0.43788258 21.79252205 -0.46621116 23.92578125 -0.48828125 C25.85031128 -0.52755737 25.85031128 -0.52755737 27.8137207 -0.56762695 C31 0 31 0 32.74511719 2.05078125 C33.15922852 3.02402344 33.57333984 3.99726563 34 5 C34.75591431 6.75630737 34.75591431 6.75630737 35.52709961 8.5480957 C36.0735187 9.92214253 36.6149807 11.29816757 37.15234375 12.67578125 C37.44890869 13.42629257 37.74547363 14.17680389 38.05102539 14.95005798 C39.01808948 17.40230784 39.97816198 19.85721834 40.9375 22.3125 C41.60419555 24.0107628 42.27094414 25.70900477 42.93774414 27.40722656 C47.34634461 38.65950645 51.67929506 49.93998023 55.9375 61.25 C56.32855423 62.28491074 56.32855423 62.28491074 56.72750854 63.34072876 C57.45628712 65.27261735 58.18027047 67.20622175 58.90234375 69.140625 C59.51323853 70.77306152 59.51323853 70.77306152 60.13647461 72.43847656 C61 75 61 75 61 77 C61.66 77 62.32 77 63 77 C63.25434814 75.73140137 63.50869629 74.46280273 63.77075195 73.15576172 C64.97155969 67.76844632 66.76275183 62.68088737 68.66796875 57.5078125 C69.0258699 56.52239471 69.38377106 55.53697693 69.7525177 54.521698 C70.89228349 51.38753154 72.03977489 48.2562593 73.1875 45.125 C73.93865644 43.06268401 74.68931147 41.00018532 75.43945312 38.9375 C76.91012332 34.89664116 78.38683432 30.85807261 79.86865234 26.82128906 C81.27296149 22.99460042 82.66329355 19.1633109 84.04150391 15.32714844 C84.36033035 14.44566132 84.6791568 13.56417419 85.00764465 12.65597534 C85.60406597 11.00677935 86.19633825 9.35607483 86.78373718 7.7036438 C88.77430661 2.22569339 88.77430661 2.22569339 91 0 C93.98095703 -0.22705078 93.98095703 -0.22705078 97.7578125 -0.1953125 C98.75238968 -0.19106766 98.75238968 -0.19106766 99.76705933 -0.18673706 C101.88655583 -0.17553435 104.00563104 -0.15043051 106.125 -0.125 C107.56119182 -0.11497028 108.99739025 -0.10584441 110.43359375 -0.09765625 C113.95586628 -0.075595 117.47789203 -0.04106494 121 0 C121.9022282 2.46526807 122.11145971 3.67414725 121.25 6.19262695 C120.8375 7.01206787 120.425 7.83150879 120 8.67578125 C117.72578962 13.40980388 115.64976966 18.17437202 113.6875 23.04296875 C113.39446487 23.76750748 113.10142975 24.4920462 112.79951477 25.23854065 C111.86442017 27.55408977 110.93220313 29.8707855 110 32.1875 C109.3364364 33.83156443 108.67261377 35.47552434 108.00854492 37.11938477 C106.99290748 39.63369048 105.97746408 42.1480728 104.9629364 44.66282654 C102.8338144 49.9400579 100.69676748 55.21397977 98.55078125 60.484375 C98.1435936 61.48452637 98.1435936 61.48452637 97.72817993 62.50488281 C97.18929586 63.82837966 96.65038626 65.15186612 96.1114502 66.4753418 C92.13212327 76.24825257 88.182155 86.03173971 84.28295898 95.83691406 C81.871905 101.8979549 79.43705836 107.94937235 77 114 C76.58234375 115.04414062 76.1646875 116.08828125 75.734375 117.1640625 C64.1861706 145.88459683 64.1861706 145.88459683 48.59741211 153.11425781 C41.22526094 156.05835618 34.75807669 156.52116968 26.875 156.3125 C25.740625 156.30283203 24.60625 156.29316406 23.4375 156.28320312 C15.16919168 156.16919168 15.16919168 156.16919168 14 155 C13.87205002 152.1136866 13.81477312 149.26186556 13.8125 146.375 C13.80025391 145.57964844 13.78800781 144.78429687 13.77539062 143.96484375 C13.76296141 138.91858428 14.37822152 134.78200294 16 130 C17.62808594 129.94392578 17.62808594 129.94392578 19.2890625 129.88671875 C20.73440739 129.82102125 22.17971839 129.75457524 23.625 129.6875 C24.33785156 129.66494141 25.05070312 129.64238281 25.78515625 129.61914062 C31.60002064 129.32573004 35.94623382 128.05376618 40.1875 123.8125 C44.20862408 117.5728247 45.39635767 113.40890954 44 106 C43.08534053 103.29003053 41.95731269 100.69480368 40.796875 98.08203125 C40.47720764 97.34353439 40.15754028 96.60503754 39.82818604 95.84416199 C38.8100872 93.49671351 37.78043655 91.15455512 36.75 88.8125 C36.07341521 87.26011559 35.39762715 85.70738368 34.72265625 84.15429688 C33.73306867 81.87773772 32.74286632 79.60147184 31.74926758 77.32666016 C29.46410064 72.09163495 27.24297683 66.83282409 25.05957031 61.55444336 C23.57628219 57.97848861 22.04989377 54.42252445 20.5 50.875 C20.20303223 50.19397217 19.90606445 49.51294434 19.60009766 48.8112793 C17.96153991 45.08539529 16.24523613 41.42946611 14.375 37.8125 C11.92953604 33.04985871 10.0702865 28.1203166 8.1875 23.11328125 C6.07113843 17.56479384 3.8095841 12.24484857 0.6875 7.1875 C-1 4 -1 4 -0.60546875 1.80078125 C-0.40566406 1.20652344 -0.20585938 0.61226563 0 0 Z " fill="#155FFB" transform="translate(1454,490)"/>
<path d="M0 0 C0.88929199 0.00563965 1.77858398 0.0112793 2.69482422 0.01708984 C14.10322811 0.22855044 23.52635713 3.4030036 32.1953125 11.09375 C44.03747946 23.60235926 44.49187741 39.25109012 44.3828125 55.4765625 C44.37907531 57.12136665 44.37623168 58.76617304 44.37423706 60.41098022 C44.36665617 64.7082958 44.34705632 69.00547293 44.3248291 73.30273438 C44.30425022 77.70050179 44.29520977 82.09829191 44.28515625 86.49609375 C44.26380436 95.10162554 44.22973665 103.70704547 44.1875 112.3125 C39.7247169 114.54389155 33.58839668 113.49749699 28.6875 113.5 C27.42550781 113.51224609 26.16351562 113.52449219 24.86328125 113.53710938 C23.66058594 113.53904297 22.45789062 113.54097656 21.21875 113.54296875 C19.55682617 113.54913208 19.55682617 113.54913208 17.86132812 113.55541992 C15.1875 113.3125 15.1875 113.3125 13.1875 111.3125 C12.9359436 108.46835327 12.9359436 108.46835327 12.93212891 104.78662109 C12.92850845 104.11642944 12.924888 103.44623779 12.92115784 102.7557373 C12.91425666 101.29778786 12.91175975 99.83981254 12.91310501 98.38184738 C12.91406957 96.06897286 12.90113411 93.75656406 12.88412476 91.4437561 C12.83784955 84.86700127 12.81327384 78.29029084 12.80664062 71.71337891 C12.80160521 67.69083178 12.77724563 63.6687653 12.74131393 59.64638138 C12.73155524 58.11792522 12.72916244 56.58940257 12.73448563 55.06092453 C12.79802244 43.59790969 12.79802244 43.59790969 8.1875 33.3125 C3.22816907 28.35316907 -2.30473261 27.02082648 -9.1875 26.9375 C-16.81938659 27.07657766 -21.20090693 28.75894233 -26.625 34.0625 C-32.36826043 42.59534406 -32.26745324 50.78472883 -32.2890625 60.71484375 C-32.30339023 62.20318501 -32.31915041 63.6915131 -32.33627319 65.17982483 C-32.37790874 69.0739177 -32.40305617 72.96792879 -32.42376709 76.86218262 C-32.45975291 83.11923792 -32.52044734 89.37609247 -32.58225632 95.63293648 C-32.60137451 97.81835498 -32.61307831 100.00371925 -32.62368774 102.18919373 C-32.63908096 104.1624337 -32.63908096 104.1624337 -32.65478516 106.17553711 C-32.66128082 107.33943466 -32.66777649 108.50333221 -32.67446899 109.70249939 C-32.8125 112.3125 -32.8125 112.3125 -33.8125 113.3125 C-35.8730531 113.41243532 -37.9370259 113.44330906 -40 113.4453125 C-41.25554687 113.44660156 -42.51109375 113.44789063 -43.8046875 113.44921875 C-44.46178711 113.44712402 -45.11888672 113.4450293 -45.79589844 113.44287109 C-47.80411335 113.43752234 -49.81210459 113.44281691 -51.8203125 113.44921875 C-53.07585937 113.44792969 -54.33140625 113.44664062 -55.625 113.4453125 C-56.78644531 113.44418457 -57.94789062 113.44305664 -59.14453125 113.44189453 C-61.8125 113.3125 -61.8125 113.3125 -62.8125 112.3125 C-62.91016396 110.89804008 -62.93881677 109.47874054 -62.93948364 108.06091309 C-62.94230347 107.14384079 -62.94512329 106.22676849 -62.94802856 105.28190613 C-62.94600433 104.26784195 -62.9439801 103.25377777 -62.94189453 102.20898438 C-62.94364685 101.14730545 -62.94539917 100.08562653 -62.94720459 98.99177551 C-62.95162548 95.46325065 -62.94868428 91.93477543 -62.9453125 88.40625 C-62.94598547 85.96626781 -62.94695544 83.52628568 -62.94821167 81.08630371 C-62.94968897 75.96491866 -62.94753307 70.84355101 -62.94287109 65.72216797 C-62.9371738 59.14087285 -62.94045263 52.55961851 -62.94644356 45.97832489 C-62.95004832 40.93763926 -62.94891098 35.89696338 -62.94631577 30.85627747 C-62.94564626 28.42885839 -62.94647573 26.00143844 -62.94879532 23.57402039 C-62.95132045 20.18799477 -62.94748322 16.80203621 -62.94189453 13.41601562 C-62.94391876 12.40195145 -62.94594299 11.38788727 -62.94802856 10.34309387 C-62.94520874 9.42602158 -62.94238892 8.50894928 -62.93948364 7.56408691 C-62.93910662 6.76250404 -62.93872959 5.96092117 -62.93834114 5.13504791 C-62.8125 3.3125 -62.8125 3.3125 -61.8125 2.3125 C-59.7519469 2.21256468 -57.6879741 2.18169094 -55.625 2.1796875 C-54.36945313 2.17839844 -53.11390625 2.17710937 -51.8203125 2.17578125 C-51.16321289 2.17787598 -50.50611328 2.1799707 -49.82910156 2.18212891 C-47.82088665 2.18747766 -45.81289541 2.18218309 -43.8046875 2.17578125 C-42.54914063 2.17707031 -41.29359375 2.17835938 -40 2.1796875 C-38.83855469 2.18081543 -37.67710938 2.18194336 -36.48046875 2.18310547 C-33.8125 2.3125 -33.8125 2.3125 -32.8125 3.3125 C-32.57822222 5.32844582 -32.39913876 7.350974 -32.25 9.375 C-32.12431641 11.03208984 -32.12431641 11.03208984 -31.99609375 12.72265625 C-31.93550781 13.57730469 -31.87492187 14.43195313 -31.8125 15.3125 C-30.6059375 13.765625 -30.6059375 13.765625 -29.375 12.1875 C-21.34693886 2.85298552 -12.02144847 -0.0792225 0 0 Z " fill="#165FFB" transform="translate(1273.8125,487.6875)"/>
<path d="M0 0 C1.25554688 -0.00128906 2.51109375 -0.00257813 3.8046875 -0.00390625 C4.46178711 -0.00181152 5.11888672 0.0002832 5.79589844 0.00244141 C7.80411335 0.00779016 9.81210459 0.00249559 11.8203125 -0.00390625 C13.07585938 -0.00261719 14.33140625 -0.00132812 15.625 0 C16.78644531 0.00112793 17.94789063 0.00225586 19.14453125 0.00341797 C21.8125 0.1328125 21.8125 0.1328125 22.8125 1.1328125 C22.92051662 3.1297706 22.9587906 5.13052642 22.97021484 7.13037109 C22.98047699 8.41616058 22.99073914 9.70195007 23.00131226 11.02670288 C23.00475018 11.71922527 23.0081881 12.41174767 23.01173019 13.12525558 C23.02351742 15.29596845 23.0429765 17.46648217 23.06484985 19.63711548 C23.12642233 25.81123063 23.180228 31.98533272 23.21386719 38.15966797 C23.23498831 41.93465957 23.27044366 45.70929995 23.31462479 49.4840889 C23.32866606 50.91515548 23.33748001 52.34628434 23.34067917 53.77741623 C23.36504358 63.6462363 23.7952997 73.364457 28.8125 82.1328125 C30.62851365 83.33284593 30.62851365 83.33284593 32.8125 84.1328125 C33.56402344 84.47441406 34.31554688 84.81601562 35.08984375 85.16796875 C42.00022991 87.61684304 50.09870772 86.74597783 56.84765625 84.09765625 C62.56783938 81.28873928 65.54936086 77.71341648 67.97866821 72.00610352 C69.72937875 65.97335096 69.39613899 59.64615487 69.38671875 53.4140625 C69.39918145 51.9047281 69.41352051 50.39540815 69.42964172 48.8861084 C69.46744508 44.94100896 69.4828203 40.99616 69.49243164 37.05090332 C69.51228107 30.70901197 69.56890701 24.36730902 69.62119484 18.02561951 C69.63656388 15.81137427 69.64373269 13.59722377 69.64933777 11.38293457 C69.65634861 10.03719026 69.6634491 8.69144641 69.6706543 7.34570312 C69.67413376 6.16705688 69.67761322 4.98841064 69.68119812 3.77404785 C69.8125 1.1328125 69.8125 1.1328125 70.8125 0.1328125 C72.8730531 0.03287718 74.9370259 0.00200344 77 0 C78.25554687 -0.00128906 79.51109375 -0.00257813 80.8046875 -0.00390625 C81.46178711 -0.00181152 82.11888672 0.0002832 82.79589844 0.00244141 C84.80411335 0.00779016 86.81210459 0.00249559 88.8203125 -0.00390625 C90.70363281 -0.00197266 90.70363281 -0.00197266 92.625 0 C93.78644531 0.00112793 94.94789062 0.00225586 96.14453125 0.00341797 C98.8125 0.1328125 98.8125 0.1328125 99.8125 1.1328125 C99.91016396 2.54727242 99.93881677 3.96657196 99.93948364 5.38439941 C99.94371338 6.76000786 99.94371338 6.76000786 99.94802856 8.16340637 C99.94499222 9.68450264 99.94499222 9.68450264 99.94189453 11.23632812 C99.94452301 12.82884651 99.94452301 12.82884651 99.94720459 14.45353699 C99.95162548 17.98206185 99.94868428 21.51053707 99.9453125 25.0390625 C99.94598547 27.47904469 99.94695544 29.91902682 99.94821167 32.35900879 C99.94968897 37.48039384 99.94753307 42.60176149 99.94287109 47.72314453 C99.9371738 54.30443965 99.94045263 60.88569399 99.94644356 67.46698761 C99.95004832 72.50767324 99.94891098 77.54834912 99.94631577 82.58903503 C99.94564626 85.01645411 99.94647573 87.44387406 99.94879532 89.87129211 C99.95132045 93.25731773 99.94748322 96.64327629 99.94189453 100.02929688 C99.94391876 101.04336105 99.94594299 102.05742523 99.94802856 103.10221863 C99.94520874 104.01929092 99.94238892 104.93636322 99.93948364 105.88122559 C99.9389181 107.08359989 99.9389181 107.08359989 99.93834114 108.31026459 C99.8125 110.1328125 99.8125 110.1328125 98.8125 111.1328125 C96.7519469 111.23274782 94.6879741 111.26362156 92.625 111.265625 C91.36945313 111.26691406 90.11390625 111.26820313 88.8203125 111.26953125 C88.16321289 111.26743652 87.50611328 111.2653418 86.82910156 111.26318359 C84.82088665 111.25783484 82.81289541 111.26312941 80.8046875 111.26953125 C79.54914063 111.26824219 78.29359375 111.26695312 77 111.265625 C75.83855469 111.26449707 74.67710938 111.26336914 73.48046875 111.26220703 C70.8125 111.1328125 70.8125 111.1328125 69.8125 110.1328125 C69.57822222 108.11686668 69.39913876 106.0943385 69.25 104.0703125 C69.12431641 102.41322266 69.12431641 102.41322266 68.99609375 100.72265625 C68.93550781 99.86800781 68.87492187 99.01335937 68.8125 98.1328125 C68.30203125 98.80376953 68.30203125 98.80376953 67.78125 99.48828125 C61.46949441 107.36118916 53.3374594 112.20696856 43.21704102 113.45214844 C40.47028433 113.60562375 37.75093159 113.65147424 35 113.6328125 C33.54859619 113.62531982 33.54859619 113.62531982 32.06787109 113.61767578 C24.46406821 113.43252861 18.3713215 112.15754388 11.8125 108.1328125 C11.0596875 107.68679688 10.306875 107.24078125 9.53125 106.78125 C0.88349833 101.00532631 -3.49376018 91.94078825 -6.1875 82.1328125 C-7.01392228 77.23098168 -7.31384487 72.52900285 -7.31689453 67.56103516 C-7.31864685 66.83985504 -7.32039917 66.11867493 -7.32220459 65.37564087 C-7.32657029 63.01602706 -7.32370576 60.65648944 -7.3203125 58.296875 C-7.32098661 56.65017686 -7.32195754 55.00347881 -7.32321167 53.35678101 C-7.32468109 49.91899663 -7.32255677 46.48123836 -7.31787109 43.04345703 C-7.31214722 38.62810528 -7.31547428 34.21281396 -7.32144356 29.79746437 C-7.32504663 26.40383442 -7.32391223 23.01021896 -7.32131577 19.61658859 C-7.32064718 17.98742033 -7.32147253 16.35825076 -7.32379532 14.72908401 C-7.32632059 12.46209436 -7.32248432 10.19520481 -7.31689453 7.92822266 C-7.31609894 6.63695465 -7.31530334 5.34568665 -7.31448364 4.01528931 C-7.08630266 -1.16432573 -4.6121261 0.00447903 0 0 Z " fill="#145CFB" transform="translate(1001.1875,489.8671875)"/>
<path d="M0 0 C4.18080601 -0.12403121 8.36062502 -0.21453601 12.54272461 -0.2746582 C13.96381291 -0.29973147 15.38477313 -0.33379999 16.80541992 -0.37719727 C18.85367462 -0.43817858 20.90021883 -0.46627762 22.94921875 -0.48828125 C24.17987061 -0.51446533 25.41052246 -0.54064941 26.6784668 -0.56762695 C30.99483277 0.17001001 32.26961337 1.63457912 35 5 C36.35128739 6.92341975 37.64445848 8.88871962 38.8828125 10.88671875 C39.57503906 11.98951172 40.26726562 13.09230469 40.98046875 14.22851562 C41.69604261 15.38105743 42.41087922 16.53405729 43.125 17.6875 C44.53720117 19.96687006 45.95745558 22.24047245 47.3828125 24.51171875 C48.31697998 26.01931763 48.31697998 26.01931763 49.27001953 27.55737305 C50.93223419 30.21366828 50.93223419 30.21366828 54 32 C55.48078347 29.79273611 56.95996059 27.58443496 58.4375 25.375 C58.88617432 24.70436523 59.33484863 24.03373047 59.79711914 23.34277344 C63.29020118 18.10468378 66.70543338 12.82071492 70.04272461 7.48193359 C73.70008598 1.70553678 73.70008598 1.70553678 76 0 C79.09448242 -0.34057617 79.09448242 -0.34057617 82.85546875 -0.29296875 C83.51710526 -0.28872391 84.17874176 -0.28447906 84.86042786 -0.28010559 C86.9698691 -0.26333693 89.07834846 -0.22569099 91.1875 -0.1875 C92.61912681 -0.17245068 94.05076862 -0.1587627 95.48242188 -0.14648438 C98.98859288 -0.1134403 102.49420254 -0.06167167 106 0 C106.65234375 1.76416016 106.65234375 1.76416016 107 4 C106.06640625 5.84912109 106.06640625 5.84912109 104.5625 7.7734375 C103.72525391 8.87099365 103.72525391 8.87099365 102.87109375 9.99072266 C102.25363281 10.77753418 101.63617187 11.5643457 101 12.375 C99.70480442 14.07544287 98.41327649 15.77868417 97.125 17.484375 C96.44824219 18.37962891 95.77148438 19.27488281 95.07421875 20.19726562 C91.58259144 24.91523661 88.28927558 29.76471477 85 34.625 C84.39027344 35.52395996 83.78054688 36.42291992 83.15234375 37.34912109 C81.98934854 39.06837308 80.83282095 40.79202233 79.68359375 42.52050781 C78.54569744 44.19633075 77.36967335 45.84679233 76.16015625 47.47167969 C75.59167969 48.25188477 75.02320313 49.03208984 74.4375 49.8359375 C73.92058594 50.51962402 73.40367188 51.20331055 72.87109375 51.90771484 C71.72588974 54.04999839 71.72588974 54.04999839 72.72509766 56.58935547 C74.31717699 59.59973298 76.24597985 62.09044732 78.375 64.75 C84.0426855 71.94014452 89.28081175 79.40435884 94.52734375 86.90429688 C97.22452225 90.74258935 99.96273519 94.55161279 102.703125 98.35913086 C103.80917751 99.90102298 104.90476693 101.45040393 106 103 C106.7734375 104.03769531 107.546875 105.07539063 108.34375 106.14453125 C110 109 110 109 109.60351562 111.1784668 C109.30477539 112.08012573 109.30477539 112.08012573 109 113 C104.73208708 113.27402638 100.46894004 113.47239009 96.19482422 113.60424805 C94.74502363 113.65924048 93.29582427 113.73407754 91.84814453 113.82983398 C79.93600497 114.59743223 79.93600497 114.59743223 75.51367188 110.94848633 C73.40019577 108.07160807 71.705665 105.13472925 70 102 C68.59055619 99.88009283 67.16310126 97.77206074 65.71875 95.67578125 C64.31009811 93.55628187 62.90385449 91.43517999 61.5 89.3125 C60.77296875 88.21744141 60.0459375 87.12238281 59.296875 85.99414062 C57.52909714 83.33084372 55.76351106 80.66612325 54 78 C50.99462785 80.8282706 48.72869216 83.70486614 46.50390625 87.17578125 C45.86259766 88.16900391 45.22128906 89.16222656 44.56054688 90.18554688 C43.90119141 91.21744141 43.24183594 92.24933594 42.5625 93.3125 C40.62274251 96.33180788 38.68176375 99.3465183 36.69067383 102.33227539 C34.99190737 104.86971358 34.99190737 104.86971358 33.98706055 107.27514648 C32.86384544 109.57845205 32.18287594 110.62390726 30 112 C24.53659001 112.859116 19.19674013 112.65796468 13.6875 112.4375 C12.16869111 112.40236712 10.64980467 112.37043152 9.13085938 112.34179688 C5.41895608 112.26486369 1.7099689 112.1441903 -2 112 C-1.21274093 107.05609721 0.9308376 103.96218525 3.9375 100.0625 C4.94871742 98.71804982 5.95911712 97.37298426 6.96875 96.02734375 C7.47921875 95.35171387 7.9896875 94.67608398 8.515625 93.97998047 C10.70349165 91.06162545 12.82480781 88.09801974 14.9375 85.125 C15.33517578 84.56707764 15.73285156 84.00915527 16.14257812 83.43432617 C20.10743563 77.86483239 24.04553198 72.2762868 27.97827148 66.68408203 C28.45852783 66.00200684 28.93878418 65.31993164 29.43359375 64.6171875 C29.87944824 63.9787793 30.32530273 63.34037109 30.78466797 62.68261719 C32 61 32 61 33.91015625 58.7578125 C35.21548204 57.07458099 35.21548204 57.07458099 34.72558594 55.13916016 C33.92618499 52.78237985 32.89007867 51.06516397 31.48046875 49.015625 C30.69796753 47.87226685 30.69796753 47.87226685 29.8996582 46.70581055 C29.334646 45.89539307 28.76963379 45.08497559 28.1875 44.25 C27.60508545 43.40671143 27.0226709 42.56342285 26.42260742 41.69458008 C22.65718837 36.27838502 18.78769893 30.95124767 14.8125 25.6875 C14.32652344 25.04361328 13.84054687 24.39972656 13.33984375 23.73632812 C11.39315242 21.16074589 9.44557476 18.58588034 7.49121094 16.01611328 C6.04376314 14.10331337 4.61390112 12.17852274 3.1875 10.25 C2.74833252 9.67725342 2.30916504 9.10450684 1.85668945 8.5144043 C0.66796875 6.890625 0.66796875 6.890625 -1 4 C-0.60424805 1.81933594 -0.60424805 1.81933594 0 0 Z " fill="#155BFA" transform="translate(1022,315)"/>
<path d="M0 0 C1.30066406 -0.00128906 2.60132813 -0.00257813 3.94140625 -0.00390625 C4.96258545 -0.00076416 4.96258545 -0.00076416 6.00439453 0.00244141 C8.08503515 0.0077901 10.16545989 0.0024957 12.24609375 -0.00390625 C14.19708984 -0.00197266 14.19708984 -0.00197266 16.1875 0 C17.39083984 0.00112793 18.59417969 0.00225586 19.83398438 0.00341797 C22.59375 0.1328125 22.59375 0.1328125 23.59375 1.1328125 C23.69803173 2.58344893 23.73336796 4.03910901 23.74092102 5.49346924 C23.74807632 6.43527039 23.75523163 7.37707153 23.76260376 8.34741211 C23.76529266 9.38937744 23.76798157 10.43134277 23.77075195 11.50488281 C23.77732315 12.59605408 23.78389435 13.68722534 23.79066467 14.8114624 C23.81046894 18.4446214 23.82208127 22.07773876 23.83203125 25.7109375 C23.83610678 26.95150658 23.8401823 28.19207565 23.84438133 29.47023773 C23.86312205 35.36758088 23.87767379 41.26491078 23.8859933 47.16227651 C23.89572419 53.9473258 23.92192349 60.73204522 23.96249419 67.5169785 C23.99649473 73.40785818 24.00815555 79.29862919 24.01219749 85.18959808 C24.01705059 87.68527194 24.02862781 90.18094261 24.04723549 92.67655182 C24.17971497 111.63585914 23.34855269 127.36387333 10.21875 142.2578125 C1.54913259 150.42917604 -10.60832508 155.43614428 -22.40625 156.1328125 C-24.14455078 156.25269531 -24.14455078 156.25269531 -25.91796875 156.375 C-41.96958708 156.94527693 -57.24583541 152.93799395 -69.28125 141.8203125 C-74.63633876 135.99271591 -78.22926514 129.96211581 -79.40625 122.1328125 C-75.85673651 120.08850355 -72.28983428 118.07666556 -68.71875 116.0703125 C-67.71134766 115.48958984 -66.70394531 114.90886719 -65.66601562 114.31054688 C-64.20131836 113.49360352 -64.20131836 113.49360352 -62.70703125 112.66015625 C-61.81153564 112.15218506 -60.91604004 111.64421387 -59.9934082 111.12084961 C-56.95079204 109.95887286 -55.4620871 110.09643364 -52.40625 111.1328125 C-50.82421875 112.91015625 -50.82421875 112.91015625 -49.59375 115.0703125 C-49.17480469 115.78058594 -48.75585938 116.49085938 -48.32421875 117.22265625 C-47.40625 119.1328125 -47.40625 119.1328125 -47.40625 121.1328125 C-46.08366528 121.82055655 -44.74638497 122.47992623 -43.40625 123.1328125 C-42.395625 123.6690625 -41.385 124.2053125 -40.34375 124.7578125 C-33.67995176 127.5343951 -26.63459072 126.86389188 -19.96875 124.4453125 C-15.96201698 122.60677994 -13.53020182 121.12584193 -11.40625 117.1328125 C-8.88633503 109.80048432 -7.96508437 102.97861358 -7.98974609 95.26123047 C-7.98116074 94.23710556 -7.97257538 93.21298065 -7.96372986 92.15782166 C-7.93887725 88.81347568 -7.93431118 85.46942947 -7.9296875 82.125 C-7.9153645 79.7889822 -7.89960517 77.4529728 -7.88247681 75.11697388 C-7.84079584 68.99859271 -7.81567812 62.88026374 -7.79498291 56.76177979 C-7.75903026 46.93392442 -7.69833533 37.10619721 -7.63649368 27.27847672 C-7.61735892 23.84327481 -7.60566605 20.4081075 -7.59506226 16.97286987 C-7.58485836 14.88539552 -7.57450115 12.79792192 -7.56396484 10.71044922 C-7.56292252 9.74949844 -7.56188019 8.78854767 -7.56080627 7.79847717 C-7.55535294 6.92951309 -7.5498996 6.06054901 -7.54428101 5.16525269 C-7.54172491 4.40615538 -7.53916882 3.64705807 -7.53653526 2.86495781 C-7.22537264 -1.27195579 -3.30593354 0.00309876 0 0 Z " fill="#135BFB" transform="translate(811.40625,447.8671875)"/>
<path d="M0 0 C0 11.22 0 22.44 0 34 C8.84072863 33.96040599 8.84072863 33.96040599 17.68139648 33.90991211 C19.32217163 33.90616577 19.32217163 33.90616577 20.99609375 33.90234375 C22.12200928 33.89710693 23.2479248 33.89187012 24.40795898 33.88647461 C27 34 27 34 28 35 C28.08726223 36.78071246 28.10699041 38.5648314 28.09765625 40.34765625 C28.09515869 41.31968994 28.09266113 42.29172363 28.09008789 43.29321289 C28.08098389 44.53707764 28.07187988 45.78094238 28.0625 47.0625 C28.041875 51.001875 28.02125 54.94125 28 59 C18.76 59 9.52 59 0 59 C0.05105007 66.72387564 0.11399253 74.44573664 0.20751953 82.16894531 C0.23572378 84.79550671 0.25694096 87.4221529 0.27099609 90.04882812 C0.292432 93.82726434 0.33908948 97.60468163 0.390625 101.3828125 C0.39185364 102.55490265 0.39308228 103.7269928 0.39434814 104.93460083 C0.50689202 111.21676758 0.69868597 115.26034192 5 120 C11.19652866 124.31654392 20.97059173 121.90702042 28 121 C28.33772739 123.70784994 28.67030687 126.41616996 29 129.125 C29.09539062 129.88554687 29.19078125 130.64609375 29.2890625 131.4296875 C30.30087859 139.81330649 30.30087859 139.81330649 30 144 C22.81927905 150.48581247 9.95237439 149.57112278 0.9140625 149.38671875 C-7.68924256 148.93035806 -14.57947323 145.64036424 -21 140 C-22.6953125 137.95703125 -22.6953125 137.95703125 -24.125 135.8125 C-24.60195312 135.11769531 -25.07890625 134.42289063 -25.5703125 133.70703125 C-30.14201029 125.05078379 -30.40767477 117.00661002 -30.29296875 107.33984375 C-30.28736211 105.94023599 -30.28309707 104.54062227 -30.28010559 103.14100647 C-30.26874061 99.48637162 -30.23934742 95.83210378 -30.20599365 92.1776123 C-30.17511085 88.43681805 -30.16156165 84.69596356 -30.14648438 80.95507812 C-30.11446796 73.63655281 -30.06337521 66.31832815 -30 59 C-31.21558594 59.01160156 -32.43117188 59.02320313 -33.68359375 59.03515625 C-35.26822764 59.04453278 -36.85286318 59.05363313 -38.4375 59.0625 C-39.23994141 59.07087891 -40.04238281 59.07925781 -40.86914062 59.08789062 C-42.91295221 59.0965143 -44.95683902 59.0522815 -47 59 C-48 58 -48 58 -48.11352539 55.77514648 C-48.10828857 54.81680908 -48.10305176 53.85847168 -48.09765625 52.87109375 C-48.09443359 51.83662109 -48.09121094 50.80214844 -48.08789062 49.73632812 C-48.07532227 48.1034082 -48.07532227 48.1034082 -48.0625 46.4375 C-48.05798828 45.34501953 -48.05347656 44.25253906 -48.04882812 43.12695312 C-48.03699826 40.41791505 -48.02051543 37.70898401 -48 35 C-44.81453711 33.40726856 -41.36800652 33.89858167 -37.875 33.9375 C-33.976875 33.9684375 -33.976875 33.9684375 -30 34 C-30 25.09 -30 16.18 -30 7 C-24.24071987 5.08023996 -18.61814716 3.2738506 -12.75 1.8125 C-12.069375 1.63525391 -11.38875 1.45800781 -10.6875 1.27539062 C-6.92128686 0.33018791 -3.94395996 0 0 0 Z " fill="#145CFB" transform="translate(1186,281)"/>
<path d="M0 0 C1.25167969 -0.00257813 2.50335937 -0.00515625 3.79296875 -0.0078125 C6.8125 0.125 6.8125 0.125 7.8125 1.125 C7.90025605 3.27058827 7.91945219 5.41904421 7.91015625 7.56640625 C7.90532227 9.52416992 7.90532227 9.52416992 7.90039062 11.52148438 C7.89203401 12.9101569 7.88356905 14.29882877 7.875 15.6875 C7.86998666 17.08007656 7.86542347 18.47265481 7.86132812 19.86523438 C7.84949434 23.2851987 7.8330088 26.70507844 7.8125 30.125 C6.74338379 30.10405273 5.67426758 30.08310547 4.57275391 30.06152344 C-6.80791575 29.87531848 -15.07503177 30.63045981 -24.1875 38.125 C-28.20295087 43.30622693 -29.4301006 49.11334388 -29.49047852 55.57348633 C-29.50712051 56.83111282 -29.52376251 58.08873932 -29.54090881 59.38447571 C-29.54946682 60.74199385 -29.55796456 62.09951238 -29.56640625 63.45703125 C-29.58259456 64.8585474 -29.59977595 66.2600524 -29.61790466 67.6615448 C-29.66341907 71.33534609 -29.69832379 75.00916245 -29.73010254 78.68310547 C-29.78215742 84.5809552 -29.84698824 90.47864242 -29.91831779 96.37628746 C-29.94119059 98.43759558 -29.95742865 100.49888265 -29.97303772 102.56025696 C-29.98652756 103.80212265 -30.0000174 105.04398834 -30.01391602 106.32348633 C-30.02342789 107.42235672 -30.03293976 108.52122711 -30.04273987 109.65339661 C-30.1875 112.125 -30.1875 112.125 -31.1875 113.125 C-33.2480531 113.22493532 -35.3120259 113.25580906 -37.375 113.2578125 C-38.63054687 113.25910156 -39.88609375 113.26039063 -41.1796875 113.26171875 C-41.83678711 113.25962402 -42.49388672 113.2575293 -43.17089844 113.25537109 C-45.17911335 113.25002234 -47.18710459 113.25531691 -49.1953125 113.26171875 C-50.45085937 113.26042969 -51.70640625 113.25914062 -53 113.2578125 C-54.16144531 113.25668457 -55.32289062 113.25555664 -56.51953125 113.25439453 C-59.1875 113.125 -59.1875 113.125 -60.1875 112.125 C-60.28516396 110.71054008 -60.31381677 109.29124054 -60.31448364 107.87341309 C-60.31730347 106.95634079 -60.32012329 106.03926849 -60.32302856 105.09440613 C-60.32100433 104.08034195 -60.3189801 103.06627777 -60.31689453 102.02148438 C-60.31864685 100.95980545 -60.32039917 99.89812653 -60.32220459 98.80427551 C-60.32662548 95.27575065 -60.32368428 91.74727543 -60.3203125 88.21875 C-60.32098547 85.77876781 -60.32195544 83.33878568 -60.32321167 80.89880371 C-60.32468897 75.77741866 -60.32253307 70.65605101 -60.31787109 65.53466797 C-60.3121738 58.95337285 -60.31545263 52.37211851 -60.32144356 45.79082489 C-60.32504832 40.75013926 -60.32391098 35.70946338 -60.32131577 30.66877747 C-60.32064626 28.24135839 -60.32147573 25.81393844 -60.32379532 23.38652039 C-60.32632045 20.00049477 -60.32248322 16.61453621 -60.31689453 13.22851562 C-60.31891876 12.21445145 -60.32094299 11.20038727 -60.32302856 10.15559387 C-60.32020874 9.23852158 -60.31738892 8.32144928 -60.31448364 7.37658691 C-60.31410662 6.57500404 -60.31372959 5.77342117 -60.31334114 4.94754791 C-60.1875 3.125 -60.1875 3.125 -59.1875 2.125 C-57.04191173 2.03724395 -54.89345579 2.01804781 -52.74609375 2.02734375 C-51.44091797 2.03056641 -50.13574219 2.03378906 -48.79101562 2.03710938 C-47.4023431 2.04546599 -46.01367123 2.05393095 -44.625 2.0625 C-43.23242344 2.06751334 -41.83984519 2.07207653 -40.44726562 2.07617188 C-37.02732549 2.08800558 -33.6074075 2.10594169 -30.1875 2.125 C-29.6925 9.055 -29.6925 9.055 -29.1875 16.125 C-27.888125 14.578125 -26.58875 13.03125 -25.25 11.4375 C-17.86925856 3.2185671 -10.93610285 -0.0226655 0 0 Z " fill="#155DFB" transform="translate(1185.1875,487.875)"/>
<path d="M0 0 C2.0234375 1.125 2.0234375 1.125 3.875 2.375 C4.50664063 2.7875 5.13828125 3.2 5.7890625 3.625 C11.74381552 8.08472992 15.53426403 15.07543751 16.875 22.375 C17.80466046 34.33866333 16.12882017 44.26339909 8.44921875 53.72265625 C3.26202351 59.16728053 -2.68322712 61.59491815 -10.10205078 61.80664062 C-19.3358717 61.83111729 -25.94522634 60.90228279 -33.140625 54.61328125 C-40.97925024 46.49470511 -42.72983403 37.86346198 -42.59570312 26.92285156 C-42.19814593 16.85281228 -38.3751953 10.31133403 -31.125 3.375 C-23.083844 -3.09532553 -9.56848483 -4.00348063 0 0 Z " fill="#F9FAFD" transform="translate(928.125,515.625)"/>
<path d="M0 0 C-2.4163167 7.80913425 -5.59675974 15.17038837 -8.9375 22.625 C-9.72543945 24.40777344 -9.72543945 24.40777344 -10.52929688 26.2265625 C-11.98869144 29.49969774 -13.48248395 32.75347114 -15 36 C-15.3407959 36.75796875 -15.6815918 37.5159375 -16.03271484 38.296875 C-17.66701594 41.59828408 -18.87932317 42.93639202 -22.171875 44.671875 C-23.35265625 45.02765625 -24.5334375 45.3834375 -25.75 45.75 C-26.92046875 46.11609375 -28.0909375 46.4821875 -29.296875 46.859375 C-30.51890625 47.23578125 -31.7409375 47.6121875 -33 48 C-34.96492371 48.70625912 -36.91578773 49.44395263 -38.86669922 50.18798828 C-41.15894957 51.06050198 -43.45907505 51.90921786 -45.76171875 52.75390625 C-46.57060547 53.05103516 -47.37949219 53.34816406 -48.21289062 53.65429688 C-49.87422135 54.26401968 -51.53568153 54.87338988 -53.19726562 55.48242188 C-57.15392562 56.93647067 -61.09819916 58.40272512 -65 60 C-64.29961483 55.177382 -62.47046923 50.97416952 -60.578125 46.5234375 C-60.2362616 45.7163736 -59.89439819 44.90930969 -59.54217529 44.07778931 C-58.81866515 42.37716816 -58.09230507 40.67775703 -57.36328125 38.97949219 C-56.25340172 36.38295824 -55.16573084 33.77780219 -54.078125 31.171875 C-53.37114768 29.51764898 -52.66285799 27.86398309 -51.953125 26.2109375 C-51.63208801 25.43277679 -51.31105103 24.65461609 -50.98028564 23.85287476 C-48.47055735 18.11273912 -46.03502358 16.30990652 -40.26782227 13.82080078 C-39.29385498 13.44938965 -38.3198877 13.07797852 -37.31640625 12.6953125 C-36.22980713 12.27878418 -35.14320801 11.86225586 -34.02368164 11.43310547 C-32.8814917 11.00143066 -31.73930176 10.56975586 -30.5625 10.125 C-29.39775146 9.68172363 -28.23300293 9.23844727 -27.03295898 8.78173828 C-23.69133147 7.51386288 -20.34667653 6.25448013 -17 5 C-16.16339844 4.68611328 -15.32679688 4.37222656 -14.46484375 4.04882812 C-3.60971223 0 -3.60971223 0 0 0 Z " fill="#ECF3FD" transform="translate(501,402)"/>
<path d="M0 0 C5.72136549 3.74089282 8.75079519 8.63057044 11 15 C11 16.65 11 18.3 11 20 C-6.16 20 -23.32 20 -41 20 C-39.77224559 11.40571914 -38.03495068 7.03495068 -32 1 C-22.3478871 -5.99778185 -10.08018805 -6.08425693 0 0 Z " fill="#F6F8FD" transform="translate(973,341)"/>
<path d="M0 0 C4.48810023 3.92083106 7.80976949 8.04884745 9 14 C9 15.65 9 17.3 9 19 C-8.16 19 -25.32 19 -43 19 C-41.05860287 10.26371291 -39.24675075 4.96785526 -32.125 -0.41796875 C-22.56489284 -6.12518789 -9.41448216 -5.91295546 0 0 Z " fill="#F3F6FD" transform="translate(1410,516)"/>
<path d="M0 0 C2.16489174 -0.01188701 4.32692165 -0.06106233 6.49121094 -0.11157227 C7.87400958 -0.12103855 9.25682567 -0.12827261 10.63964844 -0.13305664 C11.89310059 -0.14651123 13.14655273 -0.15996582 14.43798828 -0.17382812 C18.68631458 0.58271047 20.07087045 2.17450496 22.80371094 5.42553711 C23.46371094 6.08553711 24.12371094 6.74553711 24.80371094 7.42553711 C25.42820288 12.03116522 25.44757865 15.2488773 22.77636719 19.15209961 C19.98012423 22.23342859 17.56408629 22.89514549 13.44454956 23.19020081 C10.60987176 23.27251178 7.78843028 23.25449003 4.95385742 23.17333984 C2.74263278 23.11307586 0.53712527 23.11177153 -1.67480469 23.11889648 C-13.52252623 22.98987177 -13.52252623 22.98987177 -18.19628906 18.42553711 C-20.48482901 15.15619433 -20.66791124 12.35572191 -20.19628906 8.42553711 C-15.15113467 -0.62094663 -9.36503121 0.02437706 0 0 Z " fill="#155DFB" transform="translate(582.1962890625,417.574462890625)"/>
<path d="M0 0 C2.10945709 -0.00966311 4.21792207 -0.04065193 6.32714844 -0.07226562 C7.67349682 -0.07879993 9.01985218 -0.08404872 10.36621094 -0.08789062 C12.2026416 -0.10190918 12.2026416 -0.10190918 14.07617188 -0.11621094 C18.49013148 0.35974039 21.04296266 1.94752914 24.19433594 4.99023438 C25.96042129 8.33650136 25.88897786 10.50006271 25.38183594 14.24023438 C23.62480322 17.52653632 21.76580165 20.54825152 18.38183594 22.24023438 C14.01204682 22.52178836 9.63861706 22.55388051 5.26098633 22.59033203 C3.80509436 22.60687442 2.34928304 22.63414273 0.89379883 22.67236328 C-1.21087529 22.72731561 -3.31364913 22.74903053 -5.41894531 22.76367188 C-6.67876221 22.78349121 -7.9385791 22.80331055 -9.23657227 22.82373047 C-14.15024312 21.97587303 -16.14480809 19.24935616 -18.99316406 15.36523438 C-19.98575265 11.99043317 -19.5069904 9.61777444 -18.61816406 6.24023438 C-16.11816406 3.36523438 -16.11816406 3.36523438 -13.61816406 1.24023438 C-11.01259917 -1.36533051 -3.73498267 0.01037015 0 0 Z " fill="#165CFB" transform="translate(350.6181640625,417.759765625)"/>
<path d="M0 0 C2.87384508 1.2229128 4.398159 2.0842415 6.10791016 4.68579102 C7.94646385 9.45526296 7.37179491 14.79471356 7.37060547 19.84448242 C7.37497953 21.9277519 7.41132556 24.00890176 7.44921875 26.09179688 C7.45501953 28.07083008 7.45501953 28.07083008 7.4609375 30.08984375 C7.46915527 31.29503662 7.47737305 32.50022949 7.48583984 33.74194336 C6.90925086 37.60856647 5.69124352 39.2239656 3 42 C-0.48828431 44.52599898 -3.79668393 44.50729677 -8 44 C-10.97239241 42.21523759 -13.42604027 40.14791945 -15 37 C-15.25840788 32.62987717 -15.27103382 28.25594302 -15.29516602 23.87915039 C-15.31235449 21.70589761 -15.35623807 19.53417654 -15.40039062 17.36132812 C-15.41052026 15.9739695 -15.41903552 14.58659796 -15.42578125 13.19921875 C-15.44036377 11.93940186 -15.45494629 10.67958496 -15.4699707 9.3815918 C-14.91954573 5.4211054 -13.78798822 3.80680187 -11 1 C-7.5507568 -0.7246216 -3.77868569 -0.36610104 0 0 Z " fill="#145CFB" transform="translate(474,300)"/>
<path d="M0 0 C3.10039543 1.75494081 5.48825667 3.48825667 8 6 C8.44694689 10.34339781 8.41421177 14.70221355 8.42553711 19.06591797 C8.43738338 21.22870877 8.48649877 23.3885975 8.53710938 25.55078125 C8.54658004 26.93488196 8.553812 28.31900015 8.55859375 29.703125 C8.57204834 30.95770508 8.58550293 32.21228516 8.59936523 33.50488281 C7.80431062 38.14113612 6.33172798 39.72622845 3 43 C-0.65288193 44.21762731 -3.15754136 44.39075851 -7 44 C-9.97551795 42.22396702 -12.42755188 40.14489623 -14 37 C-14.32819965 32.6492142 -14.39893641 28.29536725 -14.45996094 23.93408203 C-14.48652854 22.48485188 -14.52741305 21.03580943 -14.58300781 19.58740234 C-15.0365324 7.62364227 -15.0365324 7.62364227 -12.53149414 3.69970703 C-8.57311781 0.16095956 -5.37880107 -0.97796383 0 0 Z " fill="#145CFB" transform="translate(473,518)"/>
<path d="M0 0 C0.66 0 1.32 0 2 0 C2.41572266 1.35544922 2.41572266 1.35544922 2.83984375 2.73828125 C3.20207031 3.91777344 3.56429687 5.09726562 3.9375 6.3125 C4.29714844 7.48425781 4.65679688 8.65601563 5.02734375 9.86328125 C5.66372279 11.91553977 6.32053379 13.96160137 7 16 C7.845625 16.12375 8.69125 16.2475 9.5625 16.375 C13.15236798 17.02770327 16.50824875 17.95247463 20 19 C17.69762809 21.67134177 15.88713311 22.50563583 12.5 23.375 C8.89203382 24.52234185 8.89203382 24.52234185 6.125 27.0625 C4.49979486 31.30609119 3.19955064 35.61866256 2 40 C1.34 40 0.68 40 0 40 C-0.29132812 39.02417969 -0.58265625 38.04835938 -0.8828125 37.04296875 C-1.29568623 35.7574301 -1.70981529 34.47229415 -2.125 33.1875 C-2.31320312 32.54490234 -2.50140625 31.90230469 -2.6953125 31.24023438 C-3.86264256 27.72000465 -4.73846001 26.17056956 -7.875 24.125 C-10.55428112 23.1604588 -13.08539049 22.36196854 -15.875 21.8125 C-17.04675781 21.57466797 -17.04675781 21.57466797 -18.2421875 21.33203125 C-19.11230469 21.16767578 -19.11230469 21.16767578 -20 21 C-20 20.34 -20 19.68 -20 19 C-18.97519531 18.80148437 -17.95039062 18.60296875 -16.89453125 18.3984375 C-9.5162848 16.8656409 -9.5162848 16.8656409 -3.79882812 12.38916016 C-1.85278734 8.44999694 -0.84468303 4.30497076 0 0 Z " fill="#C2D8FB" transform="translate(548,482)"/>
<path d="M0 0 C9.57 0 19.14 0 29 0 C29 5.61 29 11.22 29 17 C28.67 17 28.34 17 28 17 C28 11.72 28 6.44 28 1 C19.42 1 10.84 1 2 1 C2 36.31 2 71.62 2 108 C10.91 108 19.82 108 29 108 C28.98952637 106.07172363 28.97905273 104.14344727 28.96826172 102.15673828 C28.93604611 95.79448308 28.9130462 89.43224715 28.89637566 83.06993294 C28.88592657 79.21145203 28.871747 75.35305915 28.84912109 71.49462891 C28.8274326 67.77287808 28.81543986 64.05121206 28.81024551 60.32940292 C28.80654255 58.90758809 28.79931181 57.48577803 28.78853989 56.06399918 C28.77407881 54.07672886 28.77318354 52.08937369 28.77294922 50.10205078 C28.768508 48.96953888 28.76406677 47.83702698 28.75949097 46.67019653 C29 44 29 44 31 42 C30.89265392 50.71852623 30.78005269 59.43696386 30.66066074 68.15533352 C30.60539471 72.20321817 30.55196898 76.25111 30.50268555 80.29907227 C30.45509607 84.20242362 30.4027555 88.10568449 30.34705925 92.0089283 C30.32661106 93.50131045 30.30790213 94.99371743 30.29092598 96.48614311 C30.2669362 98.56954849 30.23687481 100.6527814 30.20532227 102.73608398 C30.18977798 103.92411118 30.1742337 105.11213837 30.15821838 106.33616638 C30 109 30 109 29 110 C26.9394469 110.09993532 24.8754741 110.13080906 22.8125 110.1328125 C21.55695313 110.13410156 20.30140625 110.13539063 19.0078125 110.13671875 C18.35071289 110.13462402 17.69361328 110.1325293 17.01660156 110.13037109 C15.00838665 110.12502234 13.00039541 110.13031691 10.9921875 110.13671875 C9.73664063 110.13542969 8.48109375 110.13414062 7.1875 110.1328125 C6.02605469 110.13168457 4.86460938 110.13055664 3.66796875 110.12939453 C1 110 1 110 0 109 C-0.09550698 107.58321089 -0.12188483 106.16168759 -0.12025452 104.74168396 C-0.12162918 103.8231665 -0.12300385 102.90464905 -0.12442017 101.95829773 C-0.12082489 100.94266251 -0.11722961 99.92702728 -0.11352539 98.88061523 C-0.11367142 97.81733002 -0.11381744 96.7540448 -0.1139679 95.65853882 C-0.11326825 92.12520342 -0.10547343 88.59192 -0.09765625 85.05859375 C-0.09579225 82.61621632 -0.09436827 80.17383851 -0.09336853 77.73146057 C-0.08954189 71.28865536 -0.07971037 64.84587252 -0.06866455 58.40307617 C-0.05845356 51.83447574 -0.05387158 45.2658717 -0.04882812 38.69726562 C-0.03808823 25.79816565 -0.02049025 12.89908818 0 0 Z " fill="#0E4CF8" transform="translate(1125,491)"/>
<path d="M0 0 C0.66 0 1.32 0 2 0 C3.31626692 3.61973402 4 6.09567131 4 10 C4.66 10 5.32 10 6 10 C6.33 10.66 6.66 11.32 7 12 C8.99291777 12.78344256 11.02051823 13.48016365 13.0625 14.125 C14.16722656 14.47820312 15.27195312 14.83140625 16.41015625 15.1953125 C17.26480469 15.46085937 18.11945313 15.72640625 19 16 C19 16.66 19 17.32 19 18 C18.16855469 18.23074219 17.33710938 18.46148437 16.48046875 18.69921875 C15.39378906 19.02535156 14.30710937 19.35148437 13.1875 19.6875 C12.10855469 20.00074219 11.02960938 20.31398438 9.91796875 20.63671875 C6.43198191 22.26537927 5.56642141 23.53738426 4 27 C3.24414243 29.191591 3.24414243 29.191591 2.8125 31.3125 C2.544375 32.529375 2.27625 33.74625 2 35 C1.34 35 0.68 35 0 35 C-0.13792969 34.11957031 -0.27585937 33.23914063 -0.41796875 32.33203125 C-1.25345273 28.51085834 -2.12692276 25.44579465 -4 22 C-8.12304304 19.42118692 -12.28483547 18.11065292 -17 17 C-14.23918589 15.15945726 -12.10074619 14.30203889 -9 13.25 C-5.37865889 11.83203674 -4.23259686 11.33127432 -1.9375 8.0625 C-1.11401747 5.37245705 -0.40925076 2.78290515 0 0 Z " fill="#ECF3FD" transform="translate(390,342)"/>
<path d="M0 0 C0.99 0.33 1.98 0.66 3 1 C2.57291748 1.39155273 2.14583496 1.78310547 1.70581055 2.18652344 C-21.12624039 23.18306256 -36.45487389 45.24540917 -50 73 C-50.66 72.01 -51.32 71.02 -52 70 C-50.85420675 65.17377995 -48.55513609 60.83394432 -46.3125 56.4375 C-45.95873291 55.74076172 -45.60496582 55.04402344 -45.24047852 54.32617188 C-44.51404342 52.90091044 -43.78512958 51.47690961 -43.05371094 50.05419922 C-42.08047455 48.15688436 -41.12166209 46.25289137 -40.1640625 44.34765625 C-37.13395986 38.47254774 -34.05557829 33.38090356 -29.48046875 28.5859375 C-27.790515 26.86159011 -27.790515 26.86159011 -26 24 C-25.34 24 -24.68 24 -24 24 C-23.835 23.319375 -23.67 22.63875 -23.5 21.9375 C-21.61958309 18.25501688 -19.1663476 16.31482449 -16.01953125 13.6953125 C-13.83686502 11.9129428 -13.83686502 11.9129428 -11.375 9.375 C-8.68781805 6.68781805 -6.02655285 4.30281195 -3 2 C-2.01 2 -1.02 2 0 2 C0 1.34 0 0.68 0 0 Z " fill="#1245EB" transform="translate(357,298)"/>
<path d="M0 0 C1.01562012 -0.00185303 2.03124023 -0.00370605 3.07763672 -0.00561523 C4.15287598 -0.00118408 5.22811523 0.00324707 6.3359375 0.0078125 C7.99326904 0.00962524 7.99326904 0.00962524 9.68408203 0.01147461 C17.46112056 0.04792072 25.20200747 0.31098341 32.95947266 0.86474609 C36.22922873 1.08507217 38.56621191 1.18105436 41.7109375 0.1328125 C45.13931317 0.58764525 48.47834502 1.49941351 51.8359375 2.3203125 C53.20492187 2.63452148 53.20492187 2.63452148 54.6015625 2.95507812 C60.45213038 4.3593811 66.58133431 5.87642914 71.7109375 9.1328125 C72.2059375 10.6178125 72.2059375 10.6178125 72.7109375 12.1328125 C68.47064108 11.74733101 64.71375989 11.23071689 60.71484375 9.7578125 C36.30770272 1.44032312 8.33633294 0.83402336 -16.9765625 4.6953125 C-20.45027104 5.15410419 -23.78932385 5.20423574 -27.2890625 5.1328125 C-26.9590625 4.1428125 -26.6290625 3.1528125 -26.2890625 2.1328125 C-24.64357422 2.04193359 -24.64357422 2.04193359 -22.96484375 1.94921875 C-21.51040596 1.86476752 -20.05597945 1.78012184 -18.6015625 1.6953125 C-17.88033203 1.65599609 -17.15910156 1.61667969 -16.41601562 1.57617188 C-15.71025391 1.53427734 -15.00449219 1.49238281 -14.27734375 1.44921875 C-13.63321533 1.41256104 -12.98908691 1.37590332 -12.32543945 1.33813477 C-10.21284598 1.16205221 -10.21284598 1.16205221 -7.87036133 0.62133789 C-5.18554314 0.11322088 -2.73059832 0.00342119 0 0 Z " fill="#1D51EA" transform="translate(459.2890625,258.8671875)"/>
<path d="M0 0 C7.06324972 1.32435932 13.47821937 3.01085054 20 6 C20 6.66 20 7.32 20 8 C21.11375 8.2475 22.2275 8.495 23.375 8.75 C27 10 27 10 28.1875 12.0625 C28.455625 12.701875 28.72375 13.34125 29 14 C30.90178785 14.60061233 30.90178785 14.60061233 33 15 C35.51059138 16.52157053 36.81693174 17.67047712 38.25 20.25 C40.81735663 24.28441757 44.36441908 26.93748523 48 30 C54.85300226 35.91649874 61.12938657 42.10145815 67 49 C68.14855469 50.29164063 68.14855469 50.29164063 69.3203125 51.609375 C69.87460937 52.39828125 70.42890625 53.1871875 71 54 C70.67 54.99 70.34 55.98 70 57 C68.96166016 55.74509766 68.96166016 55.74509766 67.90234375 54.46484375 C51.40262109 34.737413 33.98844309 19.18294783 11.17236328 7.15673828 C7.41875132 5.15801795 3.71083114 3.07678341 0 1 C0 0.67 0 0.34 0 0 Z " fill="#1A4CE9" transform="translate(540,274)"/>
<path d="M0 0 C1.31731985 3.95195956 0.06796865 6.45864227 -1.1875 10.25 C-7.53977938 30.91272643 -8.7455776 51.53859331 -9 73 C-9.33 73 -9.66 73 -10 73 C-11.16318592 65.83625177 -11.15927257 58.79526688 -11.03710938 51.55273438 C-11.0116902 49.80416255 -10.99794502 48.05539306 -10.99414062 46.30664062 C-10.95525049 35.19184048 -10.17516557 24.85699554 -7.125 14.125 C-6.86831543 13.22104492 -6.61163086 12.31708984 -6.34716797 11.38574219 C-4.90003871 6.72327546 -4.90003871 6.72327546 -4 5 C-3.01 4.67 -2.02 4.34 -1 4 C-0.26676204 1.98491642 -0.26676204 1.98491642 0 0 Z " fill="#0F47F3" transform="translate(305,372)"/>
<path d="M0 0 C0.53496094 0.3815625 1.06992187 0.763125 1.62109375 1.15625 C0.65171875 1.62933594 -0.31765625 2.10242188 -1.31640625 2.58984375 C-14.85661964 9.2474279 -28.26041725 16.09651423 -40.37890625 25.15625 C-41.03890625 24.82625 -41.69890625 24.49625 -42.37890625 24.15625 C-41.38890625 22.67125 -41.38890625 22.67125 -40.37890625 21.15625 C-39.38890625 21.15625 -38.39890625 21.15625 -37.37890625 21.15625 C-37.13011719 20.55554688 -36.88132812 19.95484375 -36.625 19.3359375 C-32.74251704 12.54463503 -22.11225782 8.61558659 -15.37890625 5.15625 C-14.24066406 4.5684375 -13.10242188 3.980625 -11.9296875 3.375 C-10.77855469 2.8078125 -9.62742187 2.240625 -8.44140625 1.65625 C-6.85005859 0.86734375 -6.85005859 0.86734375 -5.2265625 0.0625 C-2.37890625 -0.84375 -2.37890625 -0.84375 0 0 Z " fill="#1347F0" transform="translate(403.37890625,271.84375)"/>
<path d="M0 0 C1.10529053 -0.00064453 2.21058105 -0.00128906 3.34936523 -0.00195312 C12.77747014 0.0580247 21.98664518 0.85353354 31.3125 2.1875 C31.3125 2.5175 31.3125 2.8475 31.3125 3.1875 C29.58302124 3.17178955 29.58302124 3.17178955 27.81860352 3.15576172 C23.45551784 3.11899132 19.09244518 3.0963967 14.72924805 3.07763672 C12.85682863 3.06770686 10.98442416 3.05415847 9.11206055 3.03662109 C-1.74654432 2.93761531 -12.28226434 3.22957724 -23.04321289 4.75439453 C-26.62967161 5.18062738 -30.0797488 5.26144245 -33.6875 5.1875 C-33.3575 4.1975 -33.0275 3.2075 -32.6875 2.1875 C-31.04201172 2.09662109 -31.04201172 2.09662109 -29.36328125 2.00390625 C-27.90884346 1.91945502 -26.45441695 1.83480934 -25 1.75 C-24.27876953 1.71068359 -23.55753906 1.67136719 -22.81445312 1.63085938 C-22.10869141 1.58896484 -21.40292969 1.54707031 -20.67578125 1.50390625 C-20.03165283 1.46724854 -19.38752441 1.43059082 -18.72387695 1.39282227 C-16.61176361 1.21655415 -16.61176361 1.21655415 -14.27099609 0.67822266 C-9.5593463 -0.21673256 -4.78208816 -0.0028569 0 0 Z " fill="#0D3CE9" transform="translate(465.6875,258.8125)"/>
<path d="M0 0 C0.66 0.33 1.32 0.66 2 1 C-4.02650657 11.89497855 -11.33595317 21.13573517 -21 29 C-22.33588007 30.14286318 -23.66935318 31.28854793 -25 32.4375 C-26.485 33.7059375 -26.485 33.7059375 -28 35 C-28 32 -28 32 -26.671875 30.66796875 C-26.03765625 30.17941406 -25.4034375 29.69085937 -24.75 29.1875 C-15.01040388 21.01936353 -7.21045609 10.39153966 0 0 Z " fill="#133DE8" transform="translate(615,521)"/>
<path d="M0 0 C0.33 0 0.66 0 1 0 C1.33 19.14 1.66 38.28 2 58 C2.66 58 3.32 58 4 58 C4 65 4 65 3 68 C3.66 68.33 4.32 68.66 5 69 C4.01 69.99 4.01 69.99 3 71 C-0.25788336 63.09014479 -0.39332955 56.04774666 -0.29296875 47.55859375 C-0.28736186 46.18140631 -0.28309694 44.80421282 -0.28010559 43.42701721 C-0.2687426 39.83156323 -0.23935125 36.23648251 -0.20599365 32.64117432 C-0.17510645 28.96070401 -0.16156073 25.2801724 -0.14648438 21.59960938 C-0.1144715 14.39957085 -0.0633813 7.19983806 0 0 Z " fill="#446EF7" transform="translate(1156,341)"/>
<path d="M0 0 C1.02083333 0.875 2.04166667 1.75 3.0625 2.625 C3.70832031 3.17285156 4.35414062 3.72070312 5.01953125 4.28515625 C6.24887919 5.34962123 7.45909096 6.43717731 8.63671875 7.55859375 C16.60214856 14.98399442 26.56101633 17.75917105 37 20 C37 20.33 37 20.66 37 21 C23.20576946 21.89962373 12.54901569 14.3021175 2.4609375 5.67578125 C0.82078258 3.79442708 0.39321977 2.43902532 0 0 Z " fill="#194FF6" transform="translate(1349,581)"/>
<path d="M0 0 C0.99 0 1.98 0 3 0 C2.47831428 4.17348578 0.90394077 7.32499351 -1.01171875 10.99609375 C-2.28778379 13.58352999 -3.17212049 16.24040164 -4 19 C-4.66 19 -5.32 19 -6 19 C-6 19.99 -6 20.98 -6 22 C-6.99 22.33 -7.98 22.66 -9 23 C-6.54234965 15.08090444 -3.33181427 7.58014704 0 0 Z " fill="#2F6CFB" transform="translate(397,477)"/>
<path d="M0 0 C2.85906257 1.42953128 3.08795132 3.19806056 4.27734375 6.13671875 C4.70853516 7.18923828 5.13972656 8.24175781 5.58398438 9.32617188 C6.03064453 10.43541016 6.47730469 11.54464844 6.9375 12.6875 C7.81965862 14.85886859 8.7037183 17.02946598 9.58984375 19.19921875 C10.00347168 20.21677246 10.41709961 21.23432617 10.84326172 22.28271484 C11.7687127 24.45668476 12.75215544 26.50980905 13.87890625 28.58203125 C15 31 15 31 14 34 C12.82845707 31.71070947 11.66261926 29.41881638 10.5 27.125 C10.16613281 26.47402344 9.83226562 25.82304687 9.48828125 25.15234375 C7 20.2265625 7 20.2265625 7 18 C6.34 18 5.68 18 5 18 C4.15875684 15.75267898 3.32685168 13.50261215 2.5 11.25 C2.26152344 10.61578125 2.02304687 9.9815625 1.77734375 9.328125 C0.55198242 5.96713393 0 3.63128413 0 0 Z " fill="#1A47EE" transform="translate(303,479)"/>
<path d="M0 0 C3.875 1.875 3.875 1.875 5 3 C5.08775605 5.14558827 5.10695219 7.29404421 5.09765625 9.44140625 C5.09443359 10.74658203 5.09121094 12.05175781 5.08789062 13.39648438 C5.07953401 14.7851569 5.07106905 16.17382877 5.0625 17.5625 C5.05748666 18.95507656 5.05292347 20.34765481 5.04882812 21.74023438 C5.03699434 25.1601987 5.0205088 28.58007844 5 32 C2.33706092 29.33706092 2.72222658 27.97582049 2.65625 24.2578125 C2.62660156 23.10925781 2.59695313 21.96070313 2.56640625 20.77734375 C2.54449219 19.57207031 2.52257812 18.36679687 2.5 17.125 C2.45658375 14.75242973 2.4048476 12.3799933 2.34375 10.0078125 C2.32505859 8.95223145 2.30636719 7.89665039 2.28710938 6.80908203 C2.00406176 4.03974029 1.42344859 2.36318037 0 0 Z " fill="#114EFC" transform="translate(476,521)"/>
<path d="M0 0 C0 0.99 0 1.98 0 3 C-2.1359619 3.7119873 -4.2721732 4.42300031 -6.41015625 5.12890625 C-8.11189621 5.70128636 -9.80761432 6.29195447 -11.49609375 6.90234375 C-12.28113281 7.18207031 -13.06617188 7.46179688 -13.875 7.75 C-14.59429687 8.01296875 -15.31359375 8.2759375 -16.0546875 8.546875 C-18 9 -18 9 -21 8 C-17.88957191 4.53125252 -14.29790202 3.58862119 -9.9375 2.3125 C-9.20466797 2.08755859 -8.47183594 1.86261719 -7.71679688 1.63085938 C-2.31860277 0 -2.31860277 0 0 0 Z " fill="#1348F1" transform="translate(427,263)"/>
<path d="M0 0 C1.13087014 3.39261042 0.86514295 4.16517757 -0.21484375 7.44921875 C-0.62573242 8.72055664 -0.62573242 8.72055664 -1.04492188 10.01757812 C-1.48674805 11.33918945 -1.48674805 11.33918945 -1.9375 12.6875 C-2.22818359 13.58017578 -2.51886719 14.47285156 -2.81835938 15.39257812 C-3.53769987 17.59776948 -4.26516672 19.79993258 -5 22 C-5.15178711 21.38036377 -5.30357422 20.76072754 -5.45996094 20.12231445 C-5.80904422 18.75044239 -6.20023334 17.38831157 -6.640625 16.04296875 C-7.09920916 13.43601751 -6.59184373 11.8091444 -5.75 9.3125 C-5.49734375 8.52488281 -5.2446875 7.73726563 -4.984375 6.92578125 C-4 5 -4 5 -1 4 C-0.26676204 1.98491642 -0.26676204 1.98491642 0 0 Z " fill="#0D42EC" transform="translate(305,372)"/>
<path d="M0 0 C0.66 0 1.32 0 2 0 C1.69257097 2.31317961 1.37892298 4.62553352 1.0625 6.9375 C0.88847656 8.22527344 0.71445312 9.51304687 0.53515625 10.83984375 C0 14 0 14 -1 15 C-1.23481693 17.18292774 -1.41363323 19.37203174 -1.5625 21.5625 C-1.64628906 22.76003906 -1.73007812 23.95757812 -1.81640625 25.19140625 C-1.87699219 26.11824219 -1.93757812 27.04507812 -2 28 C-2.33 28 -2.66 28 -3 28 C-3.24728757 18.83662177 -2.96356413 9.98653072 -1 1 C-0.67 0.67 -0.34 0.34 0 0 Z " fill="#4876F9" transform="translate(903,352)"/>
<path d="M0 0 C0.66 0 1.32 0 2 0 C3.12496925 1.47522353 4.17504285 3.00790333 5.1875 4.5625 C8.38060598 9.26883157 11.85609725 13.13304124 16 17 C17.00344626 17.99654182 18.00450782 18.99551241 19 20 C9.96756957 17.0777431 4.90638525 9.73316051 0 2 C0 1.34 0 0.68 0 0 Z " fill="#1A50F8" transform="translate(863,574)"/>
<path d="M0 0 C0 0.99 0 1.98 0 3 C-1.41601714 3.48108275 -2.83284437 3.95978141 -4.25 4.4375 C-5.03890625 4.70433594 -5.8278125 4.97117187 -6.640625 5.24609375 C-7.80851562 5.61927734 -7.80851562 5.61927734 -9 6 C-10.04414063 6.35771484 -10.04414063 6.35771484 -11.109375 6.72265625 C-13 7 -13 7 -16 5 C-13.89828133 4.1605118 -11.79353375 3.32860344 -9.6875 2.5 C-8.51574219 2.0359375 -7.34398437 1.571875 -6.13671875 1.09375 C-3 0 -3 0 0 0 Z " fill="#2465FC" transform="translate(453,389)"/>
<path d="M0 0 C0 0.33 0 0.66 0 1 C-2.68693722 1.33851178 -5.37440289 1.670936 -8.0625 2 C-9.19075195 2.14308594 -9.19075195 2.14308594 -10.34179688 2.2890625 C-14.93421317 2.84571902 -19.3742135 3.09829028 -24 3 C-23.67 2.01 -23.34 1.02 -23 0 C-20.47958689 -0.19667089 -17.95911728 -0.38254317 -15.4375 -0.5625 C-14.73302734 -0.61857422 -14.02855469 -0.67464844 -13.30273438 -0.73242188 C-8.68561569 -1.05157754 -4.5591248 -0.80878035 0 0 Z " fill="#2249E9" transform="translate(456,261)"/>
<path d="M0 0 C9.9 0 19.8 0 30 0 C30.33 1.32 30.66 2.64 31 4 C30.34 4 29.68 4 29 4 C29 3.34 29 2.68 29 2 C19.43 1.67 9.86 1.34 0 1 C0 0.67 0 0.34 0 0 Z " fill="#2A68FA" transform="translate(1545,490)"/>
<path d="M0 0 C0.33 0.66 0.66 1.32 1 2 C-1.64 2 -4.28 2 -7 2 C-7.226875 2.61875 -7.45375 3.2375 -7.6875 3.875 C-9.37929835 6.61410209 -10.99244161 7.05024472 -14 8 C-11.33342809 1.2123624 -7.01275254 -0.55001981 0 0 Z " fill="#2460FB" transform="translate(473,518)"/>
<path d="M0 0 C2 0 2 0 3.55078125 1.5390625 C5.36865193 3.69148588 7.18606757 5.84425589 9 8 C9.52980469 8.58136719 10.05960938 9.16273438 10.60546875 9.76171875 C12 11.3125 12 11.3125 14 14 C13.67 14.99 13.34 15.98 13 17 C11.01524404 14.73384576 9.03711912 12.46245847 7.0625 10.1875 C6.21655273 9.22360352 6.21655273 9.22360352 5.35351562 8.24023438 C4.81533203 7.61826172 4.27714844 6.99628906 3.72265625 6.35546875 C3.22515869 5.78465576 2.72766113 5.21384277 2.21508789 4.62573242 C1 3 1 3 0 0 Z " fill="#1B48EA" transform="translate(597,314)"/>
<path d="M0 0 C1.65 0 3.3 0 5 0 C5.95261487 4.76307437 6.08333357 9.1666528 6 14 C3.82240976 12.246314 3.06358575 11.3522538 2.55859375 8.5546875 C2.49865234 7.22824219 2.49865234 7.22824219 2.4375 5.875 C2.35410928 3.25849402 2.35410928 3.25849402 2 1 C1.34 0.67 0.68 0.34 0 0 Z " fill="#356CFC" transform="translate(1209,402)"/>
<path d="M0 0 C2.96404505 2.80804268 5.44499019 5.18315774 7 9 C5.02 9.33 3.04 9.66 1 10 C-0.60725635 6.78548731 -0.05748185 3.56387464 0 0 Z " fill="#F2F6FE" transform="translate(775,325)"/>
<path d="M0 0 C1.46067199 0.45082469 2.91848032 0.91093537 4.375 1.375 C5.18710937 1.63023437 5.99921875 1.88546875 6.8359375 2.1484375 C9 3 9 3 11 5 C5.34264585 6.55577239 2.20333134 5.24281523 -3 3 C-2.01 2.01 -1.02 1.02 0 0 Z " fill="#2257EE" transform="translate(533,269)"/>
<path d="M0 0 C2.13831583 3.20747374 2.53447985 5.11629237 3.125 8.875 C3.29257812 9.90367187 3.46015625 10.93234375 3.6328125 11.9921875 C3.96370366 14.70267889 4.07041464 17.27394734 4 20 C0.4664584 16.4664584 0.10947217 11.27154756 -0.125 6.40625 C-0.125 4.27042687 -0.06776977 2.13474769 0 0 Z " fill="#1849F3" transform="translate(296,448)"/>
<path d="M0 0 C0.66 0 1.32 0 2 0 C1.61020794 6.55925943 0.57886807 11.94526627 -2 18 C-3.51553092 14.02549507 -2.49888623 10.79518851 -1.5625 6.75 C-1.27503906 5.48671875 -0.98757813 4.2234375 -0.69140625 2.921875 C-0.46324219 1.95765625 -0.23507812 0.9934375 0 0 Z " fill="#2C67FB" transform="translate(268,384)"/>
<path d="M0 0 C0.66 0 1.32 0 2 0 C2.64836042 1.74906531 3.29358784 3.49929219 3.9375 5.25 C4.29714844 6.22453125 4.65679688 7.1990625 5.02734375 8.203125 C6.75302419 13.16532258 6.75302419 13.16532258 7 15 C6.01 16.485 6.01 16.485 5 18 C4.35334337 15.75023648 3.70770477 13.50018033 3.0625 11.25 C2.70285156 9.99703125 2.34320312 8.7440625 1.97265625 7.453125 C1.27445851 4.97438281 0.60056274 2.50339838 0 0 Z " fill="#2B57F0" transform="translate(631,368)"/>
<path d="M0 0 C3.10140072 2.91572928 5.48748213 5.9366042 7.8125 9.5 C8.43769531 10.4384375 9.06289063 11.376875 9.70703125 12.34375 C11 15 11 15 10.69921875 17.34375 C10.46847656 17.8903125 10.23773437 18.436875 10 19 C8.70425129 16.77312024 7.41332692 14.54366825 6.125 12.3125 C5.76019531 11.68666016 5.39539063 11.06082031 5.01953125 10.41601562 C3.06258803 7.01805058 1.34392261 3.69932381 0 0 Z " fill="#214CEC" transform="translate(612,332)"/>
<path d="M0 0 C-6.46168842 3.63934176 -13.8980398 3.38951395 -21 2 C-21 1.67 -21 1.34 -21 1 C-13.97252688 0.33411422 -7.05985273 -0.11766421 0 0 Z " fill="#1849ED" transform="translate(500,597)"/>
<path d="M0 0 C3.3 1.65 6.6 3.3 10 5 C9.67 6.32 9.34 7.64 9 9 C8.01 9 7.02 9 6 9 C5.71125 8.360625 5.4225 7.72125 5.125 7.0625 C4.17176549 4.84793921 4.17176549 4.84793921 2 4 C2 3.34 2 2.68 2 2 C1.34 2 0.68 2 0 2 C0 1.34 0 0.68 0 0 Z " fill="#2F63FB" transform="translate(1435,573)"/>
<path d="M0 0 C1.17046875 0.10183594 2.3409375 0.20367187 3.546875 0.30859375 C4.43890625 0.39238281 5.3309375 0.47617187 6.25 0.5625 C6.25 0.8925 6.25 1.2225 6.25 1.5625 C3.79220024 1.78376178 1.33472352 1.99000395 -1.125 2.1875 C-2.17300781 2.28417969 -2.17300781 2.28417969 -3.2421875 2.3828125 C-5.07369111 2.52369739 -6.91312748 2.55011659 -8.75 2.5625 C-9.41 1.9025 -10.07 1.2425 -10.75 0.5625 C-7.06599416 -0.66854155 -3.83525024 -0.34517252 0 0 Z " fill="#2665FC" transform="translate(908.75,488.4375)"/>
<path d="M0 0 C0.66 0 1.32 0 2 0 C2 3.3 2 6.6 2 10 C2.66 10.33 3.32 10.66 4 11 C2.02 11.99 2.02 11.99 0 13 C0 8.71 0 4.42 0 0 Z " fill="#104DFB" transform="translate(1071,587)"/>
<path d="M0 0 C0.66 0 1.32 0 2 0 C1.34 2.97 0.68 5.94 0 9 C-0.66 9 -1.32 9 -2 9 C-2.33 6.69 -2.66 4.38 -3 2 C-2.01 2 -1.02 2 0 2 C0 1.34 0 0.68 0 0 Z " fill="#E9F0FE" transform="translate(1517,558)"/>
<path d="M0 0 C0.33 0 0.66 0 1 0 C1.33 2.97 1.66 5.94 2 9 C2.33 9 2.66 9 3 9 C2.67 11.97 2.34 14.94 2 18 C1.67 18 1.34 18 1 18 C0.04380267 14.00204108 -0.1039592 10.29196078 -0.0625 6.1875 C-0.05347656 5.02605469 -0.04445313 3.86460937 -0.03515625 2.66796875 C-0.02355469 1.78753906 -0.01195312 0.90710938 0 0 Z " fill="#5886FB" transform="translate(1336,540)"/>
<path d="M0 0 C0 0.99 0 1.98 0 3 C-5.94 2.67 -11.88 2.34 -18 2 C-18 1.67 -18 1.34 -18 1 C-16.12528812 0.83012319 -14.25021305 0.66425224 -12.375 0.5 C-11.33085938 0.4071875 -10.28671875 0.314375 -9.2109375 0.21875 C-6.12853212 0.00875645 -3.08834771 -0.03709727 0 0 Z " fill="#2367FC" transform="translate(1494,643)"/>
<path d="M0 0 C-9.41002278 4.40774487 -9.41002278 4.40774487 -14 5 C-14 4.34 -14 3.68 -14 3 C-12.42274653 2.29866401 -10.83788667 1.614417 -9.25 0.9375 C-7.92742188 0.36322266 -7.92742188 0.36322266 -6.578125 -0.22265625 C-3.84743691 -1.04600008 -2.63098653 -0.9773992 0 0 Z " fill="#1843EC" transform="translate(545,584)"/>
<path d="M0 0 C1.32 0.33 2.64 0.66 4 1 C3.01 3.31 2.02 5.62 1 8 C0.01 7.67 -0.98 7.34 -2 7 C-1.34 4.69 -0.68 2.38 0 0 Z " fill="#194CEF" transform="translate(311,353)"/>
<path d="M0 0 C-0.33 0.66 -0.66 1.32 -1 2 C-1.99 2 -2.98 2 -4 2 C-4 2.66 -4 3.32 -4 4 C-6.97 3.505 -6.97 3.505 -10 3 C-10 2.34 -10 1.68 -10 1 C-3.375 -1.125 -3.375 -1.125 0 0 Z " fill="#CFE0FC" transform="translate(538,500)"/>
<path d="M0 0 C0.66 0 1.32 0 2 0 C2.45572917 1.98567708 2.91145833 3.97135417 3.3671875 5.95703125 C3.98007723 8.27742974 3.98007723 8.27742974 6 11 C5.01 11 4.02 11 3 11 C0.08966924 7.33513904 -0.32136655 4.60625394 0 0 Z " fill="#2A61F9" transform="translate(562,426)"/>
<path d="M0 0 C0.66 0 1.32 0 2 0 C2 7 2 7 1 10 C1.66 10.33 2.32 10.66 3 11 C2.34 11.66 1.68 12.32 1 13 C-0.80098121 9.17291493 -1.28143104 6.22146566 -1 2 C-0.67 1.34 -0.34 0.68 0 0 Z " fill="#306CF9" transform="translate(1158,399)"/>
<path d="M0 0 C0.66 0.33 1.32 0.66 2 1 C1.21625 1.9075 0.4325 2.815 -0.375 3.75 C-2.30052496 6.05190236 -3.82205741 8.21577207 -5 11 C-5.66 11 -6.32 11 -7 11 C-6.40716379 7.60807637 -5.23256811 5.7892243 -2.9375 3.25 C-2.38964844 2.63640625 -1.84179688 2.0228125 -1.27734375 1.390625 C-0.85582031 0.93171875 -0.43429687 0.4728125 0 0 Z " fill="#194EF9" transform="translate(917,329)"/>
<path d="M0 0 C2.64 0 5.28 0 8 0 C8 0.33 8 0.66 8 1 C9.65 1.33 11.3 1.66 13 2 C13 2.33 13 2.66 13 3 C9.04 3 5.08 3 1 3 C0.67 2.01 0.34 1.02 0 0 Z " fill="#2168FC" transform="translate(476,227)"/>
<path d="M0 0 C0.66 0.33 1.32 0.66 2 1 C-0.75170751 3.9555377 -3.41970299 6.11563315 -7 8 C-7.66 8 -8.32 8 -9 8 C-7.83917375 4.51752126 -7.09067524 4.11180756 -4.0625 2.25 C-3.35222656 1.80140625 -2.64195312 1.3528125 -1.91015625 0.890625 C-1.27980469 0.59671875 -0.64945313 0.3028125 0 0 Z " fill="#1641E9" transform="translate(573,565)"/>
<path d="M0 0 C0.33 0 0.66 0 1 0 C2.10228696 4.40914783 2.07654536 8.48382401 2 13 C1.01 13 0.02 13 -1 13 C-1.0272415 11.58344207 -1.04650467 10.16672955 -1.0625 8.75 C-1.07410156 7.96109375 -1.08570313 7.1721875 -1.09765625 6.359375 C-1.00385306 4.09308998 -0.63241063 2.1711105 0 0 Z " fill="#1F66FB" transform="translate(884,535)"/>
<path d="M0 0 C0.99 0 1.98 0 3 0 C2.39009109 3.55780196 1.4216319 6.6828589 0 10 C-0.33 10 -0.66 10 -1 10 C-1.125 2.25 -1.125 2.25 0 0 Z " fill="#1F6AFD" transform="translate(397,477)"/>
<path d="M0 0 C-2.6598561 3.44216672 -5.90288286 3.99504674 -10 5 C-10 4.01 -10 3.02 -10 2 C-6.49223216 0.39644899 -3.85645121 -0.22036864 0 0 Z " fill="#EDF3FE" transform="translate(504,368)"/>
<path d="M0 0 C4.2742558 1.5830577 6.26531794 4.50568404 9 8 C6 8 6 8 4.39453125 6.7578125 C3.87246094 6.21898437 3.35039063 5.68015625 2.8125 5.125 C2.28269531 4.59132813 1.75289062 4.05765625 1.20703125 3.5078125 C0 2 0 2 0 0 Z " fill="#2D59ED" transform="translate(589,306)"/>
<path d="M0 0 C0.33 0.66 0.66 1.32 1 2 C1.8971875 2.2165625 1.8971875 2.2165625 2.8125 2.4375 C5.41224542 3.10600597 6.94337945 4.31063312 9 6 C8.67 6.99 8.34 7.98 8 9 C6.65826597 8.07456291 5.32679841 7.13422595 4 6.1875 C3.2575 5.66542969 2.515 5.14335937 1.75 4.60546875 C1.1725 4.07566406 0.595 3.54585938 0 3 C0 2.01 0 1.02 0 0 Z " fill="#1151F0" transform="translate(568,286)"/>
<path d="M0 0 C3.3 0 6.6 0 10 0 C10.33 0.99 10.66 1.98 11 3 C5.71910976 3.30466674 4.422832 3.317124 0 0 Z " fill="#2360F7" transform="translate(452,629)"/>
<path d="M0 0 C2.14210449 1.76956458 2.96060573 2.87575652 3.8125 5.5625 C3.874375 6.366875 3.93625 7.17125 4 8 C3.34 8.66 2.68 9.32 2 10 C-0.09350689 6.5980513 -0.17942163 3.94727588 0 0 Z " fill="#2561FC" transform="translate(652,337)"/>
<path d="M0 0 C2.64752004 2.57784846 4.94432065 4.91648098 7 8 C6.34 8.66 5.68 9.32 5 10 C2.35534962 6.8745041 1.15585285 3.91211733 0 0 Z " fill="#1F5BFB" transform="translate(630,304)"/>
<path d="M0 0 C0 3 0 3 -1.875 4.9375 C-2.57625 5.618125 -3.2775 6.29875 -4 7 C-5.23512079 9.13309192 -5.23512079 9.13309192 -6 11 C-6.66 11 -7.32 11 -8 11 C-6.52670958 5.99081256 -3.72484762 3.48192278 0 0 Z " fill="#DFEBFE" transform="translate(897,519)"/>
<path d="M0 0 C-2.98646769 1.99097846 -5.59687262 2.94124926 -9 4 C-9 3.01 -9 2.02 -9 1 C-5.57367167 -0.61798838 -3.61944899 -1.34053666 0 0 Z " fill="#ECF1FC" transform="translate(538,356)"/>
<path d="M0 0 C2.97 0.33 5.94 0.66 9 1 C5.3558226 3.4294516 3.28758728 3.16179575 -1 3 C-0.67 2.01 -0.34 1.02 0 0 Z " fill="#1246ED" transform="translate(433,261)"/>
<path d="M0 0 C-2.61973266 2.61973266 -4.35166422 2.70813314 -8 3 C-10.375 2.0625 -10.375 2.0625 -12 1 C-7.9472484 0.01751476 -4.16138263 -0.08159574 0 0 Z " fill="#2C58EC" transform="translate(514,594)"/>
<path d="M0 0 C2 1 2 1 3 3 C0.69 3.66 -1.62 4.32 -4 5 C-3.6875 3.0625 -3.6875 3.0625 -3 1 C-2.01 0.67 -1.02 0.34 0 0 Z " fill="#CDDFFD" transform="translate(468,413)"/>
<path d="M0 0 C0 0.99 0 1.98 0 3 C-2.3125 3.625 -2.3125 3.625 -5 4 C-5.99 3.34 -6.98 2.68 -8 2 C-5.09399739 0.74335022 -3.20395416 0 0 0 Z " fill="#3271FB" transform="translate(453,389)"/>
<path d="M0 0 C2.96175123 0.61277612 4.38058783 1.25372522 7 3 C4.36 3.33 1.72 3.66 -1 4 C-0.67 2.68 -0.34 1.36 0 0 Z " fill="#2557F2" transform="translate(428,262)"/>
<path d="M0 0 C2.31 1.98 4.62 3.96 7 6 C6.34 6.66 5.68 7.32 5 8 C0 2.25 0 2.25 0 0 Z " fill="#2358F7" transform="translate(1349,581)"/>
<path d="M0 0 C0.33 0.99 0.66 1.98 1 3 C-0.4375 5.6875 -0.4375 5.6875 -2 8 C-3.32 7.67 -4.64 7.34 -6 7 C-4.02 4.69 -2.04 2.38 0 0 Z " fill="#2148E7" transform="translate(604,535)"/>
<path d="M0 0 C0.66 0.99 1.32 1.98 2 3 C0.625 6.6875 0.625 6.6875 -1 10 C-2.46726798 6.18510326 -1.43336419 3.70988378 0 0 Z " fill="#406EF9" transform="translate(858,525)"/>
<path d="M0 0 C0.66 0 1.32 0 2 0 C1.67 2.31 1.34 4.62 1 7 C0.01 7.33 -0.98 7.66 -2 8 C-1.125 2.25 -1.125 2.25 0 0 Z " fill="#1248F4" transform="translate(493,420)"/>
<path d="M0 0 C-0.33 0.99 -0.66 1.98 -1 3 C-1 2.34 -1 1.68 -1 1 C-2.98 1.66 -4.96 2.32 -7 3 C-7.66 2.34 -8.32 1.68 -9 1 C-5.57367167 -0.61798838 -3.61944899 -1.34053666 0 0 Z " fill="#3965F9" transform="translate(555,352)"/>
<path d="M0 0 C0.99 0.33 1.98 0.66 3 1 C1.02 3.97 1.02 3.97 -1 7 C-1.625 5.1875 -1.625 5.1875 -2 3 C-1.34 2.01 -0.68 1.02 0 0 Z " fill="#F1F5FD" transform="translate(1243,497)"/>
<path d="M0 0 C-0.66 2.31 -1.32 4.62 -2 7 C-3 5 -4 3 -5 1 C-3 0 -3 0 0 0 Z " fill="#D9E1FD" transform="translate(501,402)"/>
<path d="M0 0 C-2.60314689 1.73543126 -3.98694043 2.61121812 -7 3 C-7.66 2.34 -8.32 1.68 -9 1 C-5.57367167 -0.61798838 -3.61944899 -1.34053666 0 0 Z " fill="#F1F5FD" transform="translate(461,385)"/>
<path d="M0 0 C0.66 0 1.32 0 2 0 C1.64950425 3.24208567 1.43778819 4.61527704 -1.0625 6.8125 C-1.701875 7.204375 -2.34125 7.59625 -3 8 C-2.690625 7.236875 -2.38125 6.47375 -2.0625 5.6875 C-1.32106407 3.81210323 -0.63771783 1.91315348 0 0 Z " fill="#0C40EA" transform="translate(340,312)"/>
<path d="M0 0 C0.33 0.66 0.66 1.32 1 2 C-2.63 1.67 -6.26 1.34 -10 1 C-10 0.67 -10 0.34 -10 0 C-3.34250344 -1.36176066 -3.34250344 -1.36176066 0 0 Z " fill="#2068FC" transform="translate(503,230)"/>
</svg>
